%TF.GenerationSoftware,KiCad,Pcbnew,9.0.3*%
%TF.CreationDate,2025-07-14T11:38:29-07:00*%
%TF.ProjectId,ECE_299_ALARM,4543455f-3239-4395-9f41-4c41524d2e6b,1.0*%
%TF.SameCoordinates,Original*%
%TF.FileFunction,Legend,Top*%
%TF.FilePolarity,Positive*%
%FSLAX46Y46*%
G04 Gerber Fmt 4.6, Leading zero omitted, Abs format (unit mm)*
G04 Created by KiCad (PCBNEW 9.0.3) date 2025-07-14 11:38:29*
%MOMM*%
%LPD*%
G01*
G04 APERTURE LIST*
G04 Aperture macros list*
%AMRoundRect*
0 Rectangle with rounded corners*
0 $1 Rounding radius*
0 $2 $3 $4 $5 $6 $7 $8 $9 X,Y pos of 4 corners*
0 Add a 4 corners polygon primitive as box body*
4,1,4,$2,$3,$4,$5,$6,$7,$8,$9,$2,$3,0*
0 Add four circle primitives for the rounded corners*
1,1,$1+$1,$2,$3*
1,1,$1+$1,$4,$5*
1,1,$1+$1,$6,$7*
1,1,$1+$1,$8,$9*
0 Add four rect primitives between the rounded corners*
20,1,$1+$1,$2,$3,$4,$5,0*
20,1,$1+$1,$4,$5,$6,$7,0*
20,1,$1+$1,$6,$7,$8,$9,0*
20,1,$1+$1,$8,$9,$2,$3,0*%
%AMFreePoly0*
4,1,18,-0.900000,0.625000,0.275000,0.625000,0.372772,0.617305,0.523217,0.573597,0.658067,0.493847,0.768847,0.383067,0.848597,0.248217,0.892305,0.097772,0.900000,0.000000,0.892305,-0.097772,0.848597,-0.248217,0.768847,-0.383067,0.658067,-0.493847,0.523217,-0.573597,0.372772,-0.617305,0.275000,-0.625000,-0.900000,-0.625000,-0.900000,0.625000,-0.900000,0.625000,$1*%
G04 Aperture macros list end*
%ADD10C,0.150000*%
%ADD11C,0.250000*%
%ADD12C,0.120000*%
%ADD13C,3.200000*%
%ADD14R,1.700000X1.700000*%
%ADD15C,1.700000*%
%ADD16C,2.000000*%
%ADD17C,1.600000*%
%ADD18R,0.850000X0.850000*%
%ADD19C,0.850000*%
%ADD20RoundRect,0.250000X-0.550000X-0.550000X0.550000X-0.550000X0.550000X0.550000X-0.550000X0.550000X0*%
%ADD21FreePoly0,90.000000*%
%ADD22FreePoly0,270.000000*%
G04 APERTURE END LIST*
D10*
X138357142Y-88954819D02*
X137880952Y-88954819D01*
X137880952Y-88954819D02*
X137880952Y-87954819D01*
X138642857Y-88907200D02*
X138785714Y-88954819D01*
X138785714Y-88954819D02*
X139023809Y-88954819D01*
X139023809Y-88954819D02*
X139119047Y-88907200D01*
X139119047Y-88907200D02*
X139166666Y-88859580D01*
X139166666Y-88859580D02*
X139214285Y-88764342D01*
X139214285Y-88764342D02*
X139214285Y-88669104D01*
X139214285Y-88669104D02*
X139166666Y-88573866D01*
X139166666Y-88573866D02*
X139119047Y-88526247D01*
X139119047Y-88526247D02*
X139023809Y-88478628D01*
X139023809Y-88478628D02*
X138833333Y-88431009D01*
X138833333Y-88431009D02*
X138738095Y-88383390D01*
X138738095Y-88383390D02*
X138690476Y-88335771D01*
X138690476Y-88335771D02*
X138642857Y-88240533D01*
X138642857Y-88240533D02*
X138642857Y-88145295D01*
X138642857Y-88145295D02*
X138690476Y-88050057D01*
X138690476Y-88050057D02*
X138738095Y-88002438D01*
X138738095Y-88002438D02*
X138833333Y-87954819D01*
X138833333Y-87954819D02*
X139071428Y-87954819D01*
X139071428Y-87954819D02*
X139214285Y-88002438D01*
X140166666Y-88954819D02*
X139595238Y-88954819D01*
X139880952Y-88954819D02*
X139880952Y-87954819D01*
X139880952Y-87954819D02*
X139785714Y-88097676D01*
X139785714Y-88097676D02*
X139690476Y-88192914D01*
X139690476Y-88192914D02*
X139595238Y-88240533D01*
X108666667Y-115407200D02*
X108809524Y-115454819D01*
X108809524Y-115454819D02*
X109047619Y-115454819D01*
X109047619Y-115454819D02*
X109142857Y-115407200D01*
X109142857Y-115407200D02*
X109190476Y-115359580D01*
X109190476Y-115359580D02*
X109238095Y-115264342D01*
X109238095Y-115264342D02*
X109238095Y-115169104D01*
X109238095Y-115169104D02*
X109190476Y-115073866D01*
X109190476Y-115073866D02*
X109142857Y-115026247D01*
X109142857Y-115026247D02*
X109047619Y-114978628D01*
X109047619Y-114978628D02*
X108857143Y-114931009D01*
X108857143Y-114931009D02*
X108761905Y-114883390D01*
X108761905Y-114883390D02*
X108714286Y-114835771D01*
X108714286Y-114835771D02*
X108666667Y-114740533D01*
X108666667Y-114740533D02*
X108666667Y-114645295D01*
X108666667Y-114645295D02*
X108714286Y-114550057D01*
X108714286Y-114550057D02*
X108761905Y-114502438D01*
X108761905Y-114502438D02*
X108857143Y-114454819D01*
X108857143Y-114454819D02*
X109095238Y-114454819D01*
X109095238Y-114454819D02*
X109238095Y-114502438D01*
X109571429Y-114454819D02*
X109809524Y-115454819D01*
X109809524Y-115454819D02*
X110000000Y-114740533D01*
X110000000Y-114740533D02*
X110190476Y-115454819D01*
X110190476Y-115454819D02*
X110428572Y-114454819D01*
X110761905Y-114550057D02*
X110809524Y-114502438D01*
X110809524Y-114502438D02*
X110904762Y-114454819D01*
X110904762Y-114454819D02*
X111142857Y-114454819D01*
X111142857Y-114454819D02*
X111238095Y-114502438D01*
X111238095Y-114502438D02*
X111285714Y-114550057D01*
X111285714Y-114550057D02*
X111333333Y-114645295D01*
X111333333Y-114645295D02*
X111333333Y-114740533D01*
X111333333Y-114740533D02*
X111285714Y-114883390D01*
X111285714Y-114883390D02*
X110714286Y-115454819D01*
X110714286Y-115454819D02*
X111333333Y-115454819D01*
X123333333Y-76859580D02*
X123285714Y-76907200D01*
X123285714Y-76907200D02*
X123142857Y-76954819D01*
X123142857Y-76954819D02*
X123047619Y-76954819D01*
X123047619Y-76954819D02*
X122904762Y-76907200D01*
X122904762Y-76907200D02*
X122809524Y-76811961D01*
X122809524Y-76811961D02*
X122761905Y-76716723D01*
X122761905Y-76716723D02*
X122714286Y-76526247D01*
X122714286Y-76526247D02*
X122714286Y-76383390D01*
X122714286Y-76383390D02*
X122761905Y-76192914D01*
X122761905Y-76192914D02*
X122809524Y-76097676D01*
X122809524Y-76097676D02*
X122904762Y-76002438D01*
X122904762Y-76002438D02*
X123047619Y-75954819D01*
X123047619Y-75954819D02*
X123142857Y-75954819D01*
X123142857Y-75954819D02*
X123285714Y-76002438D01*
X123285714Y-76002438D02*
X123333333Y-76050057D01*
X124285714Y-76954819D02*
X123714286Y-76954819D01*
X124000000Y-76954819D02*
X124000000Y-75954819D01*
X124000000Y-75954819D02*
X123904762Y-76097676D01*
X123904762Y-76097676D02*
X123809524Y-76192914D01*
X123809524Y-76192914D02*
X123714286Y-76240533D01*
X93833333Y-72669104D02*
X94309523Y-72669104D01*
X93738095Y-72954819D02*
X94071428Y-71954819D01*
X94071428Y-71954819D02*
X94404761Y-72954819D01*
X94738095Y-72431009D02*
X95071428Y-72431009D01*
X95214285Y-72954819D02*
X94738095Y-72954819D01*
X94738095Y-72954819D02*
X94738095Y-71954819D01*
X94738095Y-71954819D02*
X95214285Y-71954819D01*
X96166666Y-72954819D02*
X95595238Y-72954819D01*
X95880952Y-72954819D02*
X95880952Y-71954819D01*
X95880952Y-71954819D02*
X95785714Y-72097676D01*
X95785714Y-72097676D02*
X95690476Y-72192914D01*
X95690476Y-72192914D02*
X95595238Y-72240533D01*
X131243095Y-72314819D02*
X131243095Y-73124342D01*
X131243095Y-73124342D02*
X131290714Y-73219580D01*
X131290714Y-73219580D02*
X131338333Y-73267200D01*
X131338333Y-73267200D02*
X131433571Y-73314819D01*
X131433571Y-73314819D02*
X131624047Y-73314819D01*
X131624047Y-73314819D02*
X131719285Y-73267200D01*
X131719285Y-73267200D02*
X131766904Y-73219580D01*
X131766904Y-73219580D02*
X131814523Y-73124342D01*
X131814523Y-73124342D02*
X131814523Y-72314819D01*
X132195476Y-72314819D02*
X132814523Y-72314819D01*
X132814523Y-72314819D02*
X132481190Y-72695771D01*
X132481190Y-72695771D02*
X132624047Y-72695771D01*
X132624047Y-72695771D02*
X132719285Y-72743390D01*
X132719285Y-72743390D02*
X132766904Y-72791009D01*
X132766904Y-72791009D02*
X132814523Y-72886247D01*
X132814523Y-72886247D02*
X132814523Y-73124342D01*
X132814523Y-73124342D02*
X132766904Y-73219580D01*
X132766904Y-73219580D02*
X132719285Y-73267200D01*
X132719285Y-73267200D02*
X132624047Y-73314819D01*
X132624047Y-73314819D02*
X132338333Y-73314819D01*
X132338333Y-73314819D02*
X132243095Y-73267200D01*
X132243095Y-73267200D02*
X132195476Y-73219580D01*
X118666667Y-115407200D02*
X118809524Y-115454819D01*
X118809524Y-115454819D02*
X119047619Y-115454819D01*
X119047619Y-115454819D02*
X119142857Y-115407200D01*
X119142857Y-115407200D02*
X119190476Y-115359580D01*
X119190476Y-115359580D02*
X119238095Y-115264342D01*
X119238095Y-115264342D02*
X119238095Y-115169104D01*
X119238095Y-115169104D02*
X119190476Y-115073866D01*
X119190476Y-115073866D02*
X119142857Y-115026247D01*
X119142857Y-115026247D02*
X119047619Y-114978628D01*
X119047619Y-114978628D02*
X118857143Y-114931009D01*
X118857143Y-114931009D02*
X118761905Y-114883390D01*
X118761905Y-114883390D02*
X118714286Y-114835771D01*
X118714286Y-114835771D02*
X118666667Y-114740533D01*
X118666667Y-114740533D02*
X118666667Y-114645295D01*
X118666667Y-114645295D02*
X118714286Y-114550057D01*
X118714286Y-114550057D02*
X118761905Y-114502438D01*
X118761905Y-114502438D02*
X118857143Y-114454819D01*
X118857143Y-114454819D02*
X119095238Y-114454819D01*
X119095238Y-114454819D02*
X119238095Y-114502438D01*
X119571429Y-114454819D02*
X119809524Y-115454819D01*
X119809524Y-115454819D02*
X120000000Y-114740533D01*
X120000000Y-114740533D02*
X120190476Y-115454819D01*
X120190476Y-115454819D02*
X120428572Y-114454819D01*
X120714286Y-114454819D02*
X121333333Y-114454819D01*
X121333333Y-114454819D02*
X121000000Y-114835771D01*
X121000000Y-114835771D02*
X121142857Y-114835771D01*
X121142857Y-114835771D02*
X121238095Y-114883390D01*
X121238095Y-114883390D02*
X121285714Y-114931009D01*
X121285714Y-114931009D02*
X121333333Y-115026247D01*
X121333333Y-115026247D02*
X121333333Y-115264342D01*
X121333333Y-115264342D02*
X121285714Y-115359580D01*
X121285714Y-115359580D02*
X121238095Y-115407200D01*
X121238095Y-115407200D02*
X121142857Y-115454819D01*
X121142857Y-115454819D02*
X120857143Y-115454819D01*
X120857143Y-115454819D02*
X120761905Y-115407200D01*
X120761905Y-115407200D02*
X120714286Y-115359580D01*
X98724617Y-115407200D02*
X98867474Y-115454819D01*
X98867474Y-115454819D02*
X99105569Y-115454819D01*
X99105569Y-115454819D02*
X99200807Y-115407200D01*
X99200807Y-115407200D02*
X99248426Y-115359580D01*
X99248426Y-115359580D02*
X99296045Y-115264342D01*
X99296045Y-115264342D02*
X99296045Y-115169104D01*
X99296045Y-115169104D02*
X99248426Y-115073866D01*
X99248426Y-115073866D02*
X99200807Y-115026247D01*
X99200807Y-115026247D02*
X99105569Y-114978628D01*
X99105569Y-114978628D02*
X98915093Y-114931009D01*
X98915093Y-114931009D02*
X98819855Y-114883390D01*
X98819855Y-114883390D02*
X98772236Y-114835771D01*
X98772236Y-114835771D02*
X98724617Y-114740533D01*
X98724617Y-114740533D02*
X98724617Y-114645295D01*
X98724617Y-114645295D02*
X98772236Y-114550057D01*
X98772236Y-114550057D02*
X98819855Y-114502438D01*
X98819855Y-114502438D02*
X98915093Y-114454819D01*
X98915093Y-114454819D02*
X99153188Y-114454819D01*
X99153188Y-114454819D02*
X99296045Y-114502438D01*
X99629379Y-114454819D02*
X99867474Y-115454819D01*
X99867474Y-115454819D02*
X100057950Y-114740533D01*
X100057950Y-114740533D02*
X100248426Y-115454819D01*
X100248426Y-115454819D02*
X100486522Y-114454819D01*
X101391283Y-115454819D02*
X100819855Y-115454819D01*
X101105569Y-115454819D02*
X101105569Y-114454819D01*
X101105569Y-114454819D02*
X101010331Y-114597676D01*
X101010331Y-114597676D02*
X100915093Y-114692914D01*
X100915093Y-114692914D02*
X100819855Y-114740533D01*
D11*
X99912238Y-75523809D02*
X101531285Y-75523809D01*
X101531285Y-75523809D02*
X101721761Y-75428571D01*
X101721761Y-75428571D02*
X101817000Y-75333333D01*
X101817000Y-75333333D02*
X101912238Y-75142857D01*
X101912238Y-75142857D02*
X101912238Y-74761904D01*
X101912238Y-74761904D02*
X101817000Y-74571428D01*
X101817000Y-74571428D02*
X101721761Y-74476190D01*
X101721761Y-74476190D02*
X101531285Y-74380952D01*
X101531285Y-74380952D02*
X99912238Y-74380952D01*
X101912238Y-72380952D02*
X101912238Y-73523809D01*
X101912238Y-72952381D02*
X99912238Y-72952381D01*
X99912238Y-72952381D02*
X100197952Y-73142857D01*
X100197952Y-73142857D02*
X100388428Y-73333333D01*
X100388428Y-73333333D02*
X100483666Y-73523809D01*
D10*
X144583333Y-79359580D02*
X144535714Y-79407200D01*
X144535714Y-79407200D02*
X144392857Y-79454819D01*
X144392857Y-79454819D02*
X144297619Y-79454819D01*
X144297619Y-79454819D02*
X144154762Y-79407200D01*
X144154762Y-79407200D02*
X144059524Y-79311961D01*
X144059524Y-79311961D02*
X144011905Y-79216723D01*
X144011905Y-79216723D02*
X143964286Y-79026247D01*
X143964286Y-79026247D02*
X143964286Y-78883390D01*
X143964286Y-78883390D02*
X144011905Y-78692914D01*
X144011905Y-78692914D02*
X144059524Y-78597676D01*
X144059524Y-78597676D02*
X144154762Y-78502438D01*
X144154762Y-78502438D02*
X144297619Y-78454819D01*
X144297619Y-78454819D02*
X144392857Y-78454819D01*
X144392857Y-78454819D02*
X144535714Y-78502438D01*
X144535714Y-78502438D02*
X144583333Y-78550057D01*
X144964286Y-78550057D02*
X145011905Y-78502438D01*
X145011905Y-78502438D02*
X145107143Y-78454819D01*
X145107143Y-78454819D02*
X145345238Y-78454819D01*
X145345238Y-78454819D02*
X145440476Y-78502438D01*
X145440476Y-78502438D02*
X145488095Y-78550057D01*
X145488095Y-78550057D02*
X145535714Y-78645295D01*
X145535714Y-78645295D02*
X145535714Y-78740533D01*
X145535714Y-78740533D02*
X145488095Y-78883390D01*
X145488095Y-78883390D02*
X144916667Y-79454819D01*
X144916667Y-79454819D02*
X145535714Y-79454819D01*
X111917438Y-101523809D02*
X113536485Y-101523809D01*
X113536485Y-101523809D02*
X113726961Y-101428571D01*
X113726961Y-101428571D02*
X113822200Y-101333333D01*
X113822200Y-101333333D02*
X113917438Y-101142857D01*
X113917438Y-101142857D02*
X113917438Y-100761904D01*
X113917438Y-100761904D02*
X113822200Y-100571428D01*
X113822200Y-100571428D02*
X113726961Y-100476190D01*
X113726961Y-100476190D02*
X113536485Y-100380952D01*
X113536485Y-100380952D02*
X111917438Y-100380952D01*
X112107914Y-99523809D02*
X112012676Y-99428571D01*
X112012676Y-99428571D02*
X111917438Y-99238095D01*
X111917438Y-99238095D02*
X111917438Y-98761904D01*
X111917438Y-98761904D02*
X112012676Y-98571428D01*
X112012676Y-98571428D02*
X112107914Y-98476190D01*
X112107914Y-98476190D02*
X112298390Y-98380952D01*
X112298390Y-98380952D02*
X112488866Y-98380952D01*
X112488866Y-98380952D02*
X112774580Y-98476190D01*
X112774580Y-98476190D02*
X113917438Y-99619047D01*
X113917438Y-99619047D02*
X113917438Y-98380952D01*
X115047619Y-84954819D02*
X115047619Y-83954819D01*
X115047619Y-83954819D02*
X115285714Y-83954819D01*
X115285714Y-83954819D02*
X115428571Y-84002438D01*
X115428571Y-84002438D02*
X115523809Y-84097676D01*
X115523809Y-84097676D02*
X115571428Y-84192914D01*
X115571428Y-84192914D02*
X115619047Y-84383390D01*
X115619047Y-84383390D02*
X115619047Y-84526247D01*
X115619047Y-84526247D02*
X115571428Y-84716723D01*
X115571428Y-84716723D02*
X115523809Y-84811961D01*
X115523809Y-84811961D02*
X115428571Y-84907200D01*
X115428571Y-84907200D02*
X115285714Y-84954819D01*
X115285714Y-84954819D02*
X115047619Y-84954819D01*
X116047619Y-84954819D02*
X116047619Y-83954819D01*
X116476190Y-84907200D02*
X116619047Y-84954819D01*
X116619047Y-84954819D02*
X116857142Y-84954819D01*
X116857142Y-84954819D02*
X116952380Y-84907200D01*
X116952380Y-84907200D02*
X116999999Y-84859580D01*
X116999999Y-84859580D02*
X117047618Y-84764342D01*
X117047618Y-84764342D02*
X117047618Y-84669104D01*
X117047618Y-84669104D02*
X116999999Y-84573866D01*
X116999999Y-84573866D02*
X116952380Y-84526247D01*
X116952380Y-84526247D02*
X116857142Y-84478628D01*
X116857142Y-84478628D02*
X116666666Y-84431009D01*
X116666666Y-84431009D02*
X116571428Y-84383390D01*
X116571428Y-84383390D02*
X116523809Y-84335771D01*
X116523809Y-84335771D02*
X116476190Y-84240533D01*
X116476190Y-84240533D02*
X116476190Y-84145295D01*
X116476190Y-84145295D02*
X116523809Y-84050057D01*
X116523809Y-84050057D02*
X116571428Y-84002438D01*
X116571428Y-84002438D02*
X116666666Y-83954819D01*
X116666666Y-83954819D02*
X116904761Y-83954819D01*
X116904761Y-83954819D02*
X117047618Y-84002438D01*
X117476190Y-84954819D02*
X117476190Y-83954819D01*
X117476190Y-83954819D02*
X117857142Y-83954819D01*
X117857142Y-83954819D02*
X117952380Y-84002438D01*
X117952380Y-84002438D02*
X117999999Y-84050057D01*
X117999999Y-84050057D02*
X118047618Y-84145295D01*
X118047618Y-84145295D02*
X118047618Y-84288152D01*
X118047618Y-84288152D02*
X117999999Y-84383390D01*
X117999999Y-84383390D02*
X117952380Y-84431009D01*
X117952380Y-84431009D02*
X117857142Y-84478628D01*
X117857142Y-84478628D02*
X117476190Y-84478628D01*
X118999999Y-84954819D02*
X118428571Y-84954819D01*
X118714285Y-84954819D02*
X118714285Y-83954819D01*
X118714285Y-83954819D02*
X118619047Y-84097676D01*
X118619047Y-84097676D02*
X118523809Y-84192914D01*
X118523809Y-84192914D02*
X118428571Y-84240533D01*
X128916667Y-115407200D02*
X129059524Y-115454819D01*
X129059524Y-115454819D02*
X129297619Y-115454819D01*
X129297619Y-115454819D02*
X129392857Y-115407200D01*
X129392857Y-115407200D02*
X129440476Y-115359580D01*
X129440476Y-115359580D02*
X129488095Y-115264342D01*
X129488095Y-115264342D02*
X129488095Y-115169104D01*
X129488095Y-115169104D02*
X129440476Y-115073866D01*
X129440476Y-115073866D02*
X129392857Y-115026247D01*
X129392857Y-115026247D02*
X129297619Y-114978628D01*
X129297619Y-114978628D02*
X129107143Y-114931009D01*
X129107143Y-114931009D02*
X129011905Y-114883390D01*
X129011905Y-114883390D02*
X128964286Y-114835771D01*
X128964286Y-114835771D02*
X128916667Y-114740533D01*
X128916667Y-114740533D02*
X128916667Y-114645295D01*
X128916667Y-114645295D02*
X128964286Y-114550057D01*
X128964286Y-114550057D02*
X129011905Y-114502438D01*
X129011905Y-114502438D02*
X129107143Y-114454819D01*
X129107143Y-114454819D02*
X129345238Y-114454819D01*
X129345238Y-114454819D02*
X129488095Y-114502438D01*
X129821429Y-114454819D02*
X130059524Y-115454819D01*
X130059524Y-115454819D02*
X130250000Y-114740533D01*
X130250000Y-114740533D02*
X130440476Y-115454819D01*
X130440476Y-115454819D02*
X130678572Y-114454819D01*
X131488095Y-114788152D02*
X131488095Y-115454819D01*
X131250000Y-114407200D02*
X131011905Y-115121485D01*
X131011905Y-115121485D02*
X131630952Y-115121485D01*
D12*
%TO.C,LS1*%
X140620000Y-86620000D02*
X142000000Y-86620000D01*
X140620000Y-88000000D02*
X140620000Y-86620000D01*
X140620000Y-89270000D02*
X140620000Y-91920000D01*
X140620000Y-89270000D02*
X143380000Y-89270000D01*
X140620000Y-91920000D02*
X143380000Y-91920000D01*
X143380000Y-89270000D02*
X143380000Y-91920000D01*
%TO.C,SW2*%
X106500000Y-114250000D02*
X106500000Y-115750000D01*
X107750000Y-118250000D02*
X112250000Y-118250000D01*
X112250000Y-111750000D02*
X107750000Y-111750000D01*
X113500000Y-115750000D02*
X113500000Y-114250000D01*
%TO.C,C1*%
X124020000Y-80000000D02*
G75*
G02*
X117480000Y-80000000I-3270000J0D01*
G01*
X117480000Y-80000000D02*
G75*
G02*
X124020000Y-80000000I3270000J0D01*
G01*
%TO.C,AE1*%
X97255000Y-71265000D02*
X98000000Y-71265000D01*
X97255000Y-72000000D02*
X97255000Y-71265000D01*
X97255000Y-72735000D02*
X97255000Y-73610000D01*
X97255000Y-72735000D02*
X97314435Y-72735000D01*
X97255000Y-73610000D02*
X97589970Y-73610000D01*
X98410030Y-73610000D02*
X98745000Y-73610000D01*
X98685565Y-72735000D02*
X98745000Y-72735000D01*
X98745000Y-72735000D02*
X98745000Y-73610000D01*
%TO.C,U3*%
X129355000Y-73860000D02*
X129355000Y-84140000D01*
X129355000Y-84140000D02*
X134655000Y-84140000D01*
X131005000Y-73860000D02*
X129355000Y-73860000D01*
X134655000Y-73860000D02*
X133005000Y-73860000D01*
X134655000Y-84140000D02*
X134655000Y-73860000D01*
X133005000Y-73860000D02*
G75*
G02*
X131005000Y-73860000I-1000000J0D01*
G01*
%TO.C,SW3*%
X116500000Y-114250000D02*
X116500000Y-115750000D01*
X117750000Y-118250000D02*
X122250000Y-118250000D01*
X122250000Y-111750000D02*
X117750000Y-111750000D01*
X123500000Y-115750000D02*
X123500000Y-114250000D01*
%TO.C,SW1*%
X96557950Y-114272844D02*
X96557950Y-115772844D01*
X97807950Y-118272844D02*
X102307950Y-118272844D01*
X102307950Y-111772844D02*
X97807950Y-111772844D01*
X103557950Y-115772844D02*
X103557950Y-114272844D01*
D10*
%TO.C,U1*%
X102300000Y-72300000D02*
X103100000Y-72300000D01*
X102300000Y-83700000D02*
X102300000Y-72300000D01*
X102300000Y-83700000D02*
X103100000Y-83700000D01*
X104900000Y-72300000D02*
X105100000Y-72300000D01*
X104900000Y-83700000D02*
X105100000Y-83700000D01*
X106900000Y-72300000D02*
X107100000Y-72300000D01*
X106900000Y-83700000D02*
X107100000Y-83700000D01*
X108900000Y-72300000D02*
X109100000Y-72300000D01*
X108900000Y-83700000D02*
X109100000Y-83700000D01*
X110900000Y-72300000D02*
X111100000Y-72300000D01*
X110900000Y-83700000D02*
X111100000Y-83700000D01*
X112900000Y-72300000D02*
X113700000Y-72300000D01*
X112900000Y-83700000D02*
X113700000Y-83700000D01*
X113700000Y-83700000D02*
X113700000Y-72300000D01*
D12*
%TO.C,C2*%
X145020000Y-82000000D02*
G75*
G02*
X138480000Y-82000000I-3270000J0D01*
G01*
X138480000Y-82000000D02*
G75*
G02*
X145020000Y-82000000I3270000J0D01*
G01*
%TO.C,U2*%
X87500000Y-89900000D02*
X138500000Y-89900000D01*
X87500000Y-92300000D02*
X138500000Y-92300000D01*
X87500000Y-107700000D02*
X138500000Y-107700000D01*
X87500000Y-110100000D02*
X138500000Y-110100000D01*
X90100000Y-110100000D02*
X90100000Y-107700000D01*
X87500000Y-110500000D02*
X138500000Y-110500000D01*
X138500000Y-89500000D01*
X87500000Y-89500000D01*
X87500000Y-110500000D01*
D11*
%TO.C,DISP1*%
X110620000Y-85550000D02*
X110620000Y-88550000D01*
X128870000Y-85550000D02*
X110620000Y-85550000D01*
X128870000Y-85550000D02*
X128870000Y-88550000D01*
X128870000Y-88550000D02*
X110620000Y-88550000D01*
D12*
%TO.C,SW4*%
X126750000Y-114250000D02*
X126750000Y-115750000D01*
X128000000Y-118250000D02*
X132500000Y-118250000D01*
X132500000Y-111750000D02*
X128000000Y-111750000D01*
X133750000Y-115750000D02*
X133750000Y-114250000D01*
%TD*%
%LPC*%
D13*
%TO.C,REF\u002A\u002A*%
X90000000Y-115000000D03*
%TD*%
D14*
%TO.C,LS1*%
X142000000Y-88000000D03*
D15*
X142000000Y-90540000D03*
%TD*%
D16*
%TO.C,SW2*%
X106750000Y-112750000D03*
X113250000Y-112750000D03*
X106750000Y-117250000D03*
X113250000Y-117250000D03*
%TD*%
D17*
%TO.C,C1*%
X119500000Y-80000000D03*
X122000000Y-80000000D03*
%TD*%
D13*
%TO.C,REF\u002A\u002A*%
X142000000Y-115000000D03*
%TD*%
D18*
%TO.C,AE1*%
X98000000Y-72000000D03*
D19*
X98000000Y-73000000D03*
%TD*%
D20*
%TO.C,U3*%
X128195000Y-75190000D03*
D17*
X128195000Y-77730000D03*
X128195000Y-80270000D03*
X128195000Y-82810000D03*
X135815000Y-82810000D03*
X135815000Y-80270000D03*
X135815000Y-77730000D03*
X135815000Y-75190000D03*
%TD*%
D13*
%TO.C,REF\u002A\u002A*%
X142000000Y-74000000D03*
%TD*%
%TO.C,REF\u002A\u002A*%
X90000000Y-74000000D03*
%TD*%
D16*
%TO.C,SW3*%
X116750000Y-112750000D03*
X123250000Y-112750000D03*
X116750000Y-117250000D03*
X123250000Y-117250000D03*
%TD*%
%TO.C,SW1*%
X96807950Y-112772844D03*
X103307950Y-112772844D03*
X96807950Y-117272844D03*
X103307950Y-117272844D03*
%TD*%
D21*
%TO.C,U1*%
X104000000Y-83400000D03*
X106000000Y-83400000D03*
X108000000Y-83400000D03*
X110000000Y-83400000D03*
X112000000Y-83400000D03*
D22*
X112000000Y-72600000D03*
X110000000Y-72600000D03*
X108000000Y-72600000D03*
X106000000Y-72600000D03*
X104000000Y-72600000D03*
%TD*%
D17*
%TO.C,C2*%
X140500000Y-82000000D03*
X143000000Y-82000000D03*
%TD*%
D14*
%TO.C,U2*%
X88870000Y-108890000D03*
D15*
X91410000Y-108890000D03*
X93950000Y-108890000D03*
X96490000Y-108890000D03*
X99030000Y-108890000D03*
X101570000Y-108890000D03*
X104110000Y-108890000D03*
X106650000Y-108890000D03*
X109190000Y-108890000D03*
X111730000Y-108890000D03*
X114270000Y-108890000D03*
X116810000Y-108890000D03*
X119350000Y-108890000D03*
X121890000Y-108890000D03*
X124430000Y-108890000D03*
X126970000Y-108890000D03*
X129510000Y-108890000D03*
X132050000Y-108890000D03*
X134590000Y-108890000D03*
X137130000Y-108890000D03*
X137130000Y-91110000D03*
X134590000Y-91110000D03*
X132050000Y-91110000D03*
X129510000Y-91110000D03*
X126970000Y-91110000D03*
X124430000Y-91110000D03*
X121890000Y-91110000D03*
X119350000Y-91110000D03*
X116810000Y-91110000D03*
X114270000Y-91110000D03*
X111730000Y-91110000D03*
X109190000Y-91110000D03*
X106650000Y-91110000D03*
X104110000Y-91110000D03*
X101570000Y-91110000D03*
X99030000Y-91110000D03*
X96490000Y-91110000D03*
X93950000Y-91110000D03*
X91410000Y-91110000D03*
X88870000Y-91110000D03*
%TD*%
D14*
%TO.C,DISP1*%
X112120000Y-87050000D03*
D15*
X114660000Y-87050000D03*
X117200000Y-87050000D03*
X119740000Y-87050000D03*
X122280000Y-87050000D03*
X124820000Y-87050000D03*
X127360000Y-87050000D03*
%TD*%
D16*
%TO.C,SW4*%
X127000000Y-112750000D03*
X133500000Y-112750000D03*
X127000000Y-117250000D03*
X133500000Y-117250000D03*
%TD*%
D17*
%TO.C,R3*%
X87650000Y-84000000D03*
X100350000Y-84000000D03*
%TD*%
%TO.C,R2*%
X142000000Y-94650000D03*
X142000000Y-107350000D03*
%TD*%
%TO.C,R1*%
X115650000Y-72000000D03*
X128350000Y-72000000D03*
%TD*%
%TO.C,R4*%
X87650000Y-80000000D03*
X100350000Y-80000000D03*
%TD*%
%LPD*%
M02*
