%TF.GenerationSoftware,KiCad,Pcbnew,9.0.3*%
%TF.CreationDate,2025-07-26T00:16:15-07:00*%
%TF.ProjectId,ECE_299_ALARM,4543455f-3239-4395-9f41-4c41524d2e6b,1.0*%
%TF.SameCoordinates,Original*%
%TF.FileFunction,Legend,Top*%
%TF.FilePolarity,Positive*%
%FSLAX46Y46*%
G04 Gerber Fmt 4.6, Leading zero omitted, Abs format (unit mm)*
G04 Created by KiCad (PCBNEW 9.0.3) date 2025-07-26 00:16:15*
%MOMM*%
%LPD*%
G01*
G04 APERTURE LIST*
%ADD10C,0.250000*%
%ADD11C,0.150000*%
%ADD12C,0.120000*%
G04 APERTURE END LIST*
D10*
X106476190Y-76912238D02*
X106476190Y-78531285D01*
X106476190Y-78531285D02*
X106571428Y-78721761D01*
X106571428Y-78721761D02*
X106666666Y-78817000D01*
X106666666Y-78817000D02*
X106857142Y-78912238D01*
X106857142Y-78912238D02*
X107238095Y-78912238D01*
X107238095Y-78912238D02*
X107428571Y-78817000D01*
X107428571Y-78817000D02*
X107523809Y-78721761D01*
X107523809Y-78721761D02*
X107619047Y-78531285D01*
X107619047Y-78531285D02*
X107619047Y-76912238D01*
X109619047Y-78912238D02*
X108476190Y-78912238D01*
X109047618Y-78912238D02*
X109047618Y-76912238D01*
X109047618Y-76912238D02*
X108857142Y-77197952D01*
X108857142Y-77197952D02*
X108666666Y-77388428D01*
X108666666Y-77388428D02*
X108476190Y-77483666D01*
D11*
X143083333Y-101054819D02*
X142750000Y-100578628D01*
X142511905Y-101054819D02*
X142511905Y-100054819D01*
X142511905Y-100054819D02*
X142892857Y-100054819D01*
X142892857Y-100054819D02*
X142988095Y-100102438D01*
X142988095Y-100102438D02*
X143035714Y-100150057D01*
X143035714Y-100150057D02*
X143083333Y-100245295D01*
X143083333Y-100245295D02*
X143083333Y-100388152D01*
X143083333Y-100388152D02*
X143035714Y-100483390D01*
X143035714Y-100483390D02*
X142988095Y-100531009D01*
X142988095Y-100531009D02*
X142892857Y-100578628D01*
X142892857Y-100578628D02*
X142511905Y-100578628D01*
X143464286Y-100150057D02*
X143511905Y-100102438D01*
X143511905Y-100102438D02*
X143607143Y-100054819D01*
X143607143Y-100054819D02*
X143845238Y-100054819D01*
X143845238Y-100054819D02*
X143940476Y-100102438D01*
X143940476Y-100102438D02*
X143988095Y-100150057D01*
X143988095Y-100150057D02*
X144035714Y-100245295D01*
X144035714Y-100245295D02*
X144035714Y-100340533D01*
X144035714Y-100340533D02*
X143988095Y-100483390D01*
X143988095Y-100483390D02*
X143416667Y-101054819D01*
X143416667Y-101054819D02*
X144035714Y-101054819D01*
X94183333Y-83954819D02*
X93850000Y-83478628D01*
X93611905Y-83954819D02*
X93611905Y-82954819D01*
X93611905Y-82954819D02*
X93992857Y-82954819D01*
X93992857Y-82954819D02*
X94088095Y-83002438D01*
X94088095Y-83002438D02*
X94135714Y-83050057D01*
X94135714Y-83050057D02*
X94183333Y-83145295D01*
X94183333Y-83145295D02*
X94183333Y-83288152D01*
X94183333Y-83288152D02*
X94135714Y-83383390D01*
X94135714Y-83383390D02*
X94088095Y-83431009D01*
X94088095Y-83431009D02*
X93992857Y-83478628D01*
X93992857Y-83478628D02*
X93611905Y-83478628D01*
X94516667Y-82954819D02*
X95135714Y-82954819D01*
X95135714Y-82954819D02*
X94802381Y-83335771D01*
X94802381Y-83335771D02*
X94945238Y-83335771D01*
X94945238Y-83335771D02*
X95040476Y-83383390D01*
X95040476Y-83383390D02*
X95088095Y-83431009D01*
X95088095Y-83431009D02*
X95135714Y-83526247D01*
X95135714Y-83526247D02*
X95135714Y-83764342D01*
X95135714Y-83764342D02*
X95088095Y-83859580D01*
X95088095Y-83859580D02*
X95040476Y-83907200D01*
X95040476Y-83907200D02*
X94945238Y-83954819D01*
X94945238Y-83954819D02*
X94659524Y-83954819D01*
X94659524Y-83954819D02*
X94564286Y-83907200D01*
X94564286Y-83907200D02*
X94516667Y-83859580D01*
X139607142Y-87954819D02*
X139130952Y-87954819D01*
X139130952Y-87954819D02*
X139130952Y-86954819D01*
X139892857Y-87907200D02*
X140035714Y-87954819D01*
X140035714Y-87954819D02*
X140273809Y-87954819D01*
X140273809Y-87954819D02*
X140369047Y-87907200D01*
X140369047Y-87907200D02*
X140416666Y-87859580D01*
X140416666Y-87859580D02*
X140464285Y-87764342D01*
X140464285Y-87764342D02*
X140464285Y-87669104D01*
X140464285Y-87669104D02*
X140416666Y-87573866D01*
X140416666Y-87573866D02*
X140369047Y-87526247D01*
X140369047Y-87526247D02*
X140273809Y-87478628D01*
X140273809Y-87478628D02*
X140083333Y-87431009D01*
X140083333Y-87431009D02*
X139988095Y-87383390D01*
X139988095Y-87383390D02*
X139940476Y-87335771D01*
X139940476Y-87335771D02*
X139892857Y-87240533D01*
X139892857Y-87240533D02*
X139892857Y-87145295D01*
X139892857Y-87145295D02*
X139940476Y-87050057D01*
X139940476Y-87050057D02*
X139988095Y-87002438D01*
X139988095Y-87002438D02*
X140083333Y-86954819D01*
X140083333Y-86954819D02*
X140321428Y-86954819D01*
X140321428Y-86954819D02*
X140464285Y-87002438D01*
X141416666Y-87954819D02*
X140845238Y-87954819D01*
X141130952Y-87954819D02*
X141130952Y-86954819D01*
X141130952Y-86954819D02*
X141035714Y-87097676D01*
X141035714Y-87097676D02*
X140940476Y-87192914D01*
X140940476Y-87192914D02*
X140845238Y-87240533D01*
X108666667Y-115407200D02*
X108809524Y-115454819D01*
X108809524Y-115454819D02*
X109047619Y-115454819D01*
X109047619Y-115454819D02*
X109142857Y-115407200D01*
X109142857Y-115407200D02*
X109190476Y-115359580D01*
X109190476Y-115359580D02*
X109238095Y-115264342D01*
X109238095Y-115264342D02*
X109238095Y-115169104D01*
X109238095Y-115169104D02*
X109190476Y-115073866D01*
X109190476Y-115073866D02*
X109142857Y-115026247D01*
X109142857Y-115026247D02*
X109047619Y-114978628D01*
X109047619Y-114978628D02*
X108857143Y-114931009D01*
X108857143Y-114931009D02*
X108761905Y-114883390D01*
X108761905Y-114883390D02*
X108714286Y-114835771D01*
X108714286Y-114835771D02*
X108666667Y-114740533D01*
X108666667Y-114740533D02*
X108666667Y-114645295D01*
X108666667Y-114645295D02*
X108714286Y-114550057D01*
X108714286Y-114550057D02*
X108761905Y-114502438D01*
X108761905Y-114502438D02*
X108857143Y-114454819D01*
X108857143Y-114454819D02*
X109095238Y-114454819D01*
X109095238Y-114454819D02*
X109238095Y-114502438D01*
X109571429Y-114454819D02*
X109809524Y-115454819D01*
X109809524Y-115454819D02*
X110000000Y-114740533D01*
X110000000Y-114740533D02*
X110190476Y-115454819D01*
X110190476Y-115454819D02*
X110428572Y-114454819D01*
X110761905Y-114550057D02*
X110809524Y-114502438D01*
X110809524Y-114502438D02*
X110904762Y-114454819D01*
X110904762Y-114454819D02*
X111142857Y-114454819D01*
X111142857Y-114454819D02*
X111238095Y-114502438D01*
X111238095Y-114502438D02*
X111285714Y-114550057D01*
X111285714Y-114550057D02*
X111333333Y-114645295D01*
X111333333Y-114645295D02*
X111333333Y-114740533D01*
X111333333Y-114740533D02*
X111285714Y-114883390D01*
X111285714Y-114883390D02*
X110714286Y-115454819D01*
X110714286Y-115454819D02*
X111333333Y-115454819D01*
X120583333Y-79109580D02*
X120535714Y-79157200D01*
X120535714Y-79157200D02*
X120392857Y-79204819D01*
X120392857Y-79204819D02*
X120297619Y-79204819D01*
X120297619Y-79204819D02*
X120154762Y-79157200D01*
X120154762Y-79157200D02*
X120059524Y-79061961D01*
X120059524Y-79061961D02*
X120011905Y-78966723D01*
X120011905Y-78966723D02*
X119964286Y-78776247D01*
X119964286Y-78776247D02*
X119964286Y-78633390D01*
X119964286Y-78633390D02*
X120011905Y-78442914D01*
X120011905Y-78442914D02*
X120059524Y-78347676D01*
X120059524Y-78347676D02*
X120154762Y-78252438D01*
X120154762Y-78252438D02*
X120297619Y-78204819D01*
X120297619Y-78204819D02*
X120392857Y-78204819D01*
X120392857Y-78204819D02*
X120535714Y-78252438D01*
X120535714Y-78252438D02*
X120583333Y-78300057D01*
X121535714Y-79204819D02*
X120964286Y-79204819D01*
X121250000Y-79204819D02*
X121250000Y-78204819D01*
X121250000Y-78204819D02*
X121154762Y-78347676D01*
X121154762Y-78347676D02*
X121059524Y-78442914D01*
X121059524Y-78442914D02*
X120964286Y-78490533D01*
X94333333Y-72169104D02*
X94809523Y-72169104D01*
X94238095Y-72454819D02*
X94571428Y-71454819D01*
X94571428Y-71454819D02*
X94904761Y-72454819D01*
X95238095Y-71931009D02*
X95571428Y-71931009D01*
X95714285Y-72454819D02*
X95238095Y-72454819D01*
X95238095Y-72454819D02*
X95238095Y-71454819D01*
X95238095Y-71454819D02*
X95714285Y-71454819D01*
X96666666Y-72454819D02*
X96095238Y-72454819D01*
X96380952Y-72454819D02*
X96380952Y-71454819D01*
X96380952Y-71454819D02*
X96285714Y-71597676D01*
X96285714Y-71597676D02*
X96190476Y-71692914D01*
X96190476Y-71692914D02*
X96095238Y-71740533D01*
X131243095Y-72314819D02*
X131243095Y-73124342D01*
X131243095Y-73124342D02*
X131290714Y-73219580D01*
X131290714Y-73219580D02*
X131338333Y-73267200D01*
X131338333Y-73267200D02*
X131433571Y-73314819D01*
X131433571Y-73314819D02*
X131624047Y-73314819D01*
X131624047Y-73314819D02*
X131719285Y-73267200D01*
X131719285Y-73267200D02*
X131766904Y-73219580D01*
X131766904Y-73219580D02*
X131814523Y-73124342D01*
X131814523Y-73124342D02*
X131814523Y-72314819D01*
X132195476Y-72314819D02*
X132814523Y-72314819D01*
X132814523Y-72314819D02*
X132481190Y-72695771D01*
X132481190Y-72695771D02*
X132624047Y-72695771D01*
X132624047Y-72695771D02*
X132719285Y-72743390D01*
X132719285Y-72743390D02*
X132766904Y-72791009D01*
X132766904Y-72791009D02*
X132814523Y-72886247D01*
X132814523Y-72886247D02*
X132814523Y-73124342D01*
X132814523Y-73124342D02*
X132766904Y-73219580D01*
X132766904Y-73219580D02*
X132719285Y-73267200D01*
X132719285Y-73267200D02*
X132624047Y-73314819D01*
X132624047Y-73314819D02*
X132338333Y-73314819D01*
X132338333Y-73314819D02*
X132243095Y-73267200D01*
X132243095Y-73267200D02*
X132195476Y-73219580D01*
X121983333Y-71954819D02*
X121650000Y-71478628D01*
X121411905Y-71954819D02*
X121411905Y-70954819D01*
X121411905Y-70954819D02*
X121792857Y-70954819D01*
X121792857Y-70954819D02*
X121888095Y-71002438D01*
X121888095Y-71002438D02*
X121935714Y-71050057D01*
X121935714Y-71050057D02*
X121983333Y-71145295D01*
X121983333Y-71145295D02*
X121983333Y-71288152D01*
X121983333Y-71288152D02*
X121935714Y-71383390D01*
X121935714Y-71383390D02*
X121888095Y-71431009D01*
X121888095Y-71431009D02*
X121792857Y-71478628D01*
X121792857Y-71478628D02*
X121411905Y-71478628D01*
X122935714Y-71954819D02*
X122364286Y-71954819D01*
X122650000Y-71954819D02*
X122650000Y-70954819D01*
X122650000Y-70954819D02*
X122554762Y-71097676D01*
X122554762Y-71097676D02*
X122459524Y-71192914D01*
X122459524Y-71192914D02*
X122364286Y-71240533D01*
X118666667Y-115407200D02*
X118809524Y-115454819D01*
X118809524Y-115454819D02*
X119047619Y-115454819D01*
X119047619Y-115454819D02*
X119142857Y-115407200D01*
X119142857Y-115407200D02*
X119190476Y-115359580D01*
X119190476Y-115359580D02*
X119238095Y-115264342D01*
X119238095Y-115264342D02*
X119238095Y-115169104D01*
X119238095Y-115169104D02*
X119190476Y-115073866D01*
X119190476Y-115073866D02*
X119142857Y-115026247D01*
X119142857Y-115026247D02*
X119047619Y-114978628D01*
X119047619Y-114978628D02*
X118857143Y-114931009D01*
X118857143Y-114931009D02*
X118761905Y-114883390D01*
X118761905Y-114883390D02*
X118714286Y-114835771D01*
X118714286Y-114835771D02*
X118666667Y-114740533D01*
X118666667Y-114740533D02*
X118666667Y-114645295D01*
X118666667Y-114645295D02*
X118714286Y-114550057D01*
X118714286Y-114550057D02*
X118761905Y-114502438D01*
X118761905Y-114502438D02*
X118857143Y-114454819D01*
X118857143Y-114454819D02*
X119095238Y-114454819D01*
X119095238Y-114454819D02*
X119238095Y-114502438D01*
X119571429Y-114454819D02*
X119809524Y-115454819D01*
X119809524Y-115454819D02*
X120000000Y-114740533D01*
X120000000Y-114740533D02*
X120190476Y-115454819D01*
X120190476Y-115454819D02*
X120428572Y-114454819D01*
X120714286Y-114454819D02*
X121333333Y-114454819D01*
X121333333Y-114454819D02*
X121000000Y-114835771D01*
X121000000Y-114835771D02*
X121142857Y-114835771D01*
X121142857Y-114835771D02*
X121238095Y-114883390D01*
X121238095Y-114883390D02*
X121285714Y-114931009D01*
X121285714Y-114931009D02*
X121333333Y-115026247D01*
X121333333Y-115026247D02*
X121333333Y-115264342D01*
X121333333Y-115264342D02*
X121285714Y-115359580D01*
X121285714Y-115359580D02*
X121238095Y-115407200D01*
X121238095Y-115407200D02*
X121142857Y-115454819D01*
X121142857Y-115454819D02*
X120857143Y-115454819D01*
X120857143Y-115454819D02*
X120761905Y-115407200D01*
X120761905Y-115407200D02*
X120714286Y-115359580D01*
X98724617Y-115407200D02*
X98867474Y-115454819D01*
X98867474Y-115454819D02*
X99105569Y-115454819D01*
X99105569Y-115454819D02*
X99200807Y-115407200D01*
X99200807Y-115407200D02*
X99248426Y-115359580D01*
X99248426Y-115359580D02*
X99296045Y-115264342D01*
X99296045Y-115264342D02*
X99296045Y-115169104D01*
X99296045Y-115169104D02*
X99248426Y-115073866D01*
X99248426Y-115073866D02*
X99200807Y-115026247D01*
X99200807Y-115026247D02*
X99105569Y-114978628D01*
X99105569Y-114978628D02*
X98915093Y-114931009D01*
X98915093Y-114931009D02*
X98819855Y-114883390D01*
X98819855Y-114883390D02*
X98772236Y-114835771D01*
X98772236Y-114835771D02*
X98724617Y-114740533D01*
X98724617Y-114740533D02*
X98724617Y-114645295D01*
X98724617Y-114645295D02*
X98772236Y-114550057D01*
X98772236Y-114550057D02*
X98819855Y-114502438D01*
X98819855Y-114502438D02*
X98915093Y-114454819D01*
X98915093Y-114454819D02*
X99153188Y-114454819D01*
X99153188Y-114454819D02*
X99296045Y-114502438D01*
X99629379Y-114454819D02*
X99867474Y-115454819D01*
X99867474Y-115454819D02*
X100057950Y-114740533D01*
X100057950Y-114740533D02*
X100248426Y-115454819D01*
X100248426Y-115454819D02*
X100486522Y-114454819D01*
X101391283Y-115454819D02*
X100819855Y-115454819D01*
X101105569Y-115454819D02*
X101105569Y-114454819D01*
X101105569Y-114454819D02*
X101010331Y-114597676D01*
X101010331Y-114597676D02*
X100915093Y-114692914D01*
X100915093Y-114692914D02*
X100819855Y-114740533D01*
X141583333Y-85109580D02*
X141535714Y-85157200D01*
X141535714Y-85157200D02*
X141392857Y-85204819D01*
X141392857Y-85204819D02*
X141297619Y-85204819D01*
X141297619Y-85204819D02*
X141154762Y-85157200D01*
X141154762Y-85157200D02*
X141059524Y-85061961D01*
X141059524Y-85061961D02*
X141011905Y-84966723D01*
X141011905Y-84966723D02*
X140964286Y-84776247D01*
X140964286Y-84776247D02*
X140964286Y-84633390D01*
X140964286Y-84633390D02*
X141011905Y-84442914D01*
X141011905Y-84442914D02*
X141059524Y-84347676D01*
X141059524Y-84347676D02*
X141154762Y-84252438D01*
X141154762Y-84252438D02*
X141297619Y-84204819D01*
X141297619Y-84204819D02*
X141392857Y-84204819D01*
X141392857Y-84204819D02*
X141535714Y-84252438D01*
X141535714Y-84252438D02*
X141583333Y-84300057D01*
X141964286Y-84300057D02*
X142011905Y-84252438D01*
X142011905Y-84252438D02*
X142107143Y-84204819D01*
X142107143Y-84204819D02*
X142345238Y-84204819D01*
X142345238Y-84204819D02*
X142440476Y-84252438D01*
X142440476Y-84252438D02*
X142488095Y-84300057D01*
X142488095Y-84300057D02*
X142535714Y-84395295D01*
X142535714Y-84395295D02*
X142535714Y-84490533D01*
X142535714Y-84490533D02*
X142488095Y-84633390D01*
X142488095Y-84633390D02*
X141916667Y-85204819D01*
X141916667Y-85204819D02*
X142535714Y-85204819D01*
X111476190Y-98917438D02*
X111476190Y-100536485D01*
X111476190Y-100536485D02*
X111571428Y-100726961D01*
X111571428Y-100726961D02*
X111666666Y-100822200D01*
X111666666Y-100822200D02*
X111857142Y-100917438D01*
X111857142Y-100917438D02*
X112238095Y-100917438D01*
X112238095Y-100917438D02*
X112428571Y-100822200D01*
X112428571Y-100822200D02*
X112523809Y-100726961D01*
X112523809Y-100726961D02*
X112619047Y-100536485D01*
X112619047Y-100536485D02*
X112619047Y-98917438D01*
X113476190Y-99107914D02*
X113571428Y-99012676D01*
X113571428Y-99012676D02*
X113761904Y-98917438D01*
X113761904Y-98917438D02*
X114238095Y-98917438D01*
X114238095Y-98917438D02*
X114428571Y-99012676D01*
X114428571Y-99012676D02*
X114523809Y-99107914D01*
X114523809Y-99107914D02*
X114619047Y-99298390D01*
X114619047Y-99298390D02*
X114619047Y-99488866D01*
X114619047Y-99488866D02*
X114523809Y-99774580D01*
X114523809Y-99774580D02*
X113380952Y-100917438D01*
X113380952Y-100917438D02*
X114619047Y-100917438D01*
X94183333Y-79954819D02*
X93850000Y-79478628D01*
X93611905Y-79954819D02*
X93611905Y-78954819D01*
X93611905Y-78954819D02*
X93992857Y-78954819D01*
X93992857Y-78954819D02*
X94088095Y-79002438D01*
X94088095Y-79002438D02*
X94135714Y-79050057D01*
X94135714Y-79050057D02*
X94183333Y-79145295D01*
X94183333Y-79145295D02*
X94183333Y-79288152D01*
X94183333Y-79288152D02*
X94135714Y-79383390D01*
X94135714Y-79383390D02*
X94088095Y-79431009D01*
X94088095Y-79431009D02*
X93992857Y-79478628D01*
X93992857Y-79478628D02*
X93611905Y-79478628D01*
X95040476Y-79288152D02*
X95040476Y-79954819D01*
X94802381Y-78907200D02*
X94564286Y-79621485D01*
X94564286Y-79621485D02*
X95183333Y-79621485D01*
X106297619Y-87454819D02*
X106297619Y-86454819D01*
X106297619Y-86454819D02*
X106535714Y-86454819D01*
X106535714Y-86454819D02*
X106678571Y-86502438D01*
X106678571Y-86502438D02*
X106773809Y-86597676D01*
X106773809Y-86597676D02*
X106821428Y-86692914D01*
X106821428Y-86692914D02*
X106869047Y-86883390D01*
X106869047Y-86883390D02*
X106869047Y-87026247D01*
X106869047Y-87026247D02*
X106821428Y-87216723D01*
X106821428Y-87216723D02*
X106773809Y-87311961D01*
X106773809Y-87311961D02*
X106678571Y-87407200D01*
X106678571Y-87407200D02*
X106535714Y-87454819D01*
X106535714Y-87454819D02*
X106297619Y-87454819D01*
X107297619Y-87454819D02*
X107297619Y-86454819D01*
X107726190Y-87407200D02*
X107869047Y-87454819D01*
X107869047Y-87454819D02*
X108107142Y-87454819D01*
X108107142Y-87454819D02*
X108202380Y-87407200D01*
X108202380Y-87407200D02*
X108249999Y-87359580D01*
X108249999Y-87359580D02*
X108297618Y-87264342D01*
X108297618Y-87264342D02*
X108297618Y-87169104D01*
X108297618Y-87169104D02*
X108249999Y-87073866D01*
X108249999Y-87073866D02*
X108202380Y-87026247D01*
X108202380Y-87026247D02*
X108107142Y-86978628D01*
X108107142Y-86978628D02*
X107916666Y-86931009D01*
X107916666Y-86931009D02*
X107821428Y-86883390D01*
X107821428Y-86883390D02*
X107773809Y-86835771D01*
X107773809Y-86835771D02*
X107726190Y-86740533D01*
X107726190Y-86740533D02*
X107726190Y-86645295D01*
X107726190Y-86645295D02*
X107773809Y-86550057D01*
X107773809Y-86550057D02*
X107821428Y-86502438D01*
X107821428Y-86502438D02*
X107916666Y-86454819D01*
X107916666Y-86454819D02*
X108154761Y-86454819D01*
X108154761Y-86454819D02*
X108297618Y-86502438D01*
X108726190Y-87454819D02*
X108726190Y-86454819D01*
X108726190Y-86454819D02*
X109107142Y-86454819D01*
X109107142Y-86454819D02*
X109202380Y-86502438D01*
X109202380Y-86502438D02*
X109249999Y-86550057D01*
X109249999Y-86550057D02*
X109297618Y-86645295D01*
X109297618Y-86645295D02*
X109297618Y-86788152D01*
X109297618Y-86788152D02*
X109249999Y-86883390D01*
X109249999Y-86883390D02*
X109202380Y-86931009D01*
X109202380Y-86931009D02*
X109107142Y-86978628D01*
X109107142Y-86978628D02*
X108726190Y-86978628D01*
X110249999Y-87454819D02*
X109678571Y-87454819D01*
X109964285Y-87454819D02*
X109964285Y-86454819D01*
X109964285Y-86454819D02*
X109869047Y-86597676D01*
X109869047Y-86597676D02*
X109773809Y-86692914D01*
X109773809Y-86692914D02*
X109678571Y-86740533D01*
X128916667Y-115407200D02*
X129059524Y-115454819D01*
X129059524Y-115454819D02*
X129297619Y-115454819D01*
X129297619Y-115454819D02*
X129392857Y-115407200D01*
X129392857Y-115407200D02*
X129440476Y-115359580D01*
X129440476Y-115359580D02*
X129488095Y-115264342D01*
X129488095Y-115264342D02*
X129488095Y-115169104D01*
X129488095Y-115169104D02*
X129440476Y-115073866D01*
X129440476Y-115073866D02*
X129392857Y-115026247D01*
X129392857Y-115026247D02*
X129297619Y-114978628D01*
X129297619Y-114978628D02*
X129107143Y-114931009D01*
X129107143Y-114931009D02*
X129011905Y-114883390D01*
X129011905Y-114883390D02*
X128964286Y-114835771D01*
X128964286Y-114835771D02*
X128916667Y-114740533D01*
X128916667Y-114740533D02*
X128916667Y-114645295D01*
X128916667Y-114645295D02*
X128964286Y-114550057D01*
X128964286Y-114550057D02*
X129011905Y-114502438D01*
X129011905Y-114502438D02*
X129107143Y-114454819D01*
X129107143Y-114454819D02*
X129345238Y-114454819D01*
X129345238Y-114454819D02*
X129488095Y-114502438D01*
X129821429Y-114454819D02*
X130059524Y-115454819D01*
X130059524Y-115454819D02*
X130250000Y-114740533D01*
X130250000Y-114740533D02*
X130440476Y-115454819D01*
X130440476Y-115454819D02*
X130678572Y-114454819D01*
X131488095Y-114788152D02*
X131488095Y-115454819D01*
X131250000Y-114407200D02*
X131011905Y-115121485D01*
X131011905Y-115121485D02*
X131630952Y-115121485D01*
%TO.C,U1*%
X113700000Y-83700000D02*
X113700000Y-72300000D01*
X112900000Y-83700000D02*
X113700000Y-83700000D01*
X112900000Y-72300000D02*
X113700000Y-72300000D01*
X110900000Y-83700000D02*
X111100000Y-83700000D01*
X110900000Y-72300000D02*
X111100000Y-72300000D01*
X108900000Y-83700000D02*
X109100000Y-83700000D01*
X108900000Y-72300000D02*
X109100000Y-72300000D01*
X106900000Y-83700000D02*
X107100000Y-83700000D01*
X106900000Y-72300000D02*
X107100000Y-72300000D01*
X104900000Y-83700000D02*
X105100000Y-83700000D01*
X104900000Y-72300000D02*
X105100000Y-72300000D01*
X102300000Y-83700000D02*
X103100000Y-83700000D01*
X102300000Y-83700000D02*
X102300000Y-72300000D01*
X102300000Y-72300000D02*
X103100000Y-72300000D01*
%TO.C,R2*%
D12*
X144970000Y-95980000D02*
X141530000Y-95980000D01*
X141530000Y-105220000D01*
X144970000Y-105220000D01*
X144970000Y-95980000D01*
X143250000Y-105910000D02*
X143250000Y-105220000D01*
X143250000Y-95290000D02*
X143250000Y-95980000D01*
%TO.C,R3*%
X89040000Y-83500000D02*
X89730000Y-83500000D01*
X99660000Y-83500000D02*
X98970000Y-83500000D01*
X89730000Y-81780000D02*
X98970000Y-81780000D01*
X98970000Y-85220000D01*
X89730000Y-85220000D01*
X89730000Y-81780000D01*
%TO.C,LS1*%
X141870000Y-87095000D02*
X143250000Y-87095000D01*
X141870000Y-88475000D02*
X141870000Y-87095000D01*
X141870000Y-89745000D02*
X141870000Y-92395000D01*
X141870000Y-89745000D02*
X144630000Y-89745000D01*
X141870000Y-92395000D02*
X144630000Y-92395000D01*
X144630000Y-89745000D02*
X144630000Y-92395000D01*
%TO.C,SW2*%
X106500000Y-114250000D02*
X106500000Y-115750000D01*
X107750000Y-118250000D02*
X112250000Y-118250000D01*
X112250000Y-111750000D02*
X107750000Y-111750000D01*
X113500000Y-115750000D02*
X113500000Y-114250000D01*
%TO.C,C1*%
X124020000Y-80250000D02*
G75*
G02*
X117480000Y-80250000I-3270000J0D01*
G01*
X117480000Y-80250000D02*
G75*
G02*
X124020000Y-80250000I3270000J0D01*
G01*
%TO.C,AE1*%
X97255000Y-71265000D02*
X98000000Y-71265000D01*
X97255000Y-72000000D02*
X97255000Y-71265000D01*
X97255000Y-72735000D02*
X97255000Y-73610000D01*
X97255000Y-72735000D02*
X97314435Y-72735000D01*
X97255000Y-73610000D02*
X97589970Y-73610000D01*
X98410030Y-73610000D02*
X98745000Y-73610000D01*
X98685565Y-72735000D02*
X98745000Y-72735000D01*
X98745000Y-72735000D02*
X98745000Y-73610000D01*
%TO.C,U3*%
X129355000Y-73860000D02*
X129355000Y-84140000D01*
X129355000Y-84140000D02*
X134655000Y-84140000D01*
X131005000Y-73860000D02*
X129355000Y-73860000D01*
X134655000Y-73860000D02*
X133005000Y-73860000D01*
X134655000Y-84140000D02*
X134655000Y-73860000D01*
X133005000Y-73860000D02*
G75*
G02*
X131005000Y-73860000I-1000000J0D01*
G01*
%TO.C,R1*%
X116840000Y-71500000D02*
X117530000Y-71500000D01*
X127460000Y-71500000D02*
X126770000Y-71500000D01*
X126770000Y-73220000D02*
X117530000Y-73220000D01*
X117530000Y-69780000D01*
X126770000Y-69780000D01*
X126770000Y-73220000D01*
%TO.C,SW3*%
X116500000Y-114250000D02*
X116500000Y-115750000D01*
X117750000Y-118250000D02*
X122250000Y-118250000D01*
X122250000Y-111750000D02*
X117750000Y-111750000D01*
X123500000Y-115750000D02*
X123500000Y-114250000D01*
%TO.C,SW1*%
X96557950Y-114272844D02*
X96557950Y-115772844D01*
X97807950Y-118272844D02*
X102307950Y-118272844D01*
X102307950Y-111772844D02*
X97807950Y-111772844D01*
X103557950Y-115772844D02*
X103557950Y-114272844D01*
%TO.C,C2*%
X145270000Y-82750000D02*
G75*
G02*
X138730000Y-82750000I-3270000J0D01*
G01*
X138730000Y-82750000D02*
G75*
G02*
X145270000Y-82750000I3270000J0D01*
G01*
%TO.C,U2*%
X87500000Y-89900000D02*
X138500000Y-89900000D01*
X87500000Y-92300000D02*
X138500000Y-92300000D01*
X87500000Y-107700000D02*
X138500000Y-107700000D01*
X87500000Y-110100000D02*
X138500000Y-110100000D01*
X90100000Y-110100000D02*
X90100000Y-107700000D01*
X87500000Y-110500000D02*
X138500000Y-110500000D01*
X138500000Y-89500000D01*
X87500000Y-89500000D01*
X87500000Y-110500000D01*
%TO.C,R4*%
X89040000Y-79500000D02*
X89730000Y-79500000D01*
X99660000Y-79500000D02*
X98970000Y-79500000D01*
X89730000Y-77780000D02*
X98970000Y-77780000D01*
X98970000Y-81220000D01*
X89730000Y-81220000D01*
X89730000Y-77780000D01*
D10*
%TO.C,DISP1*%
X110620000Y-85550000D02*
X110620000Y-88550000D01*
X128870000Y-85550000D02*
X110620000Y-85550000D01*
X128870000Y-85550000D02*
X128870000Y-88550000D01*
X128870000Y-88550000D02*
X110620000Y-88550000D01*
D12*
%TO.C,SW4*%
X126750000Y-114250000D02*
X126750000Y-115750000D01*
X128000000Y-118250000D02*
X132500000Y-118250000D01*
X132500000Y-111750000D02*
X128000000Y-111750000D01*
X133750000Y-115750000D02*
X133750000Y-114250000D01*
%TD*%
M02*
