%TF.GenerationSoftware,KiCad,Pcbnew,9.0.3*%
%TF.CreationDate,2025-07-26T00:16:14-07:00*%
%TF.ProjectId,ECE_299_ALARM,4543455f-3239-4395-9f41-4c41524d2e6b,1.0*%
%TF.SameCoordinates,Original*%
%TF.FileFunction,Copper,L2,Bot*%
%TF.FilePolarity,Positive*%
%FSLAX46Y46*%
G04 Gerber Fmt 4.6, Leading zero omitted, Abs format (unit mm)*
G04 Created by KiCad (PCBNEW 9.0.3) date 2025-07-26 00:16:14*
%MOMM*%
%LPD*%
G01*
G04 APERTURE LIST*
G04 Aperture macros list*
%AMRoundRect*
0 Rectangle with rounded corners*
0 $1 Rounding radius*
0 $2 $3 $4 $5 $6 $7 $8 $9 X,Y pos of 4 corners*
0 Add a 4 corners polygon primitive as box body*
4,1,4,$2,$3,$4,$5,$6,$7,$8,$9,$2,$3,0*
0 Add four circle primitives for the rounded corners*
1,1,$1+$1,$2,$3*
1,1,$1+$1,$4,$5*
1,1,$1+$1,$6,$7*
1,1,$1+$1,$8,$9*
0 Add four rect primitives between the rounded corners*
20,1,$1+$1,$2,$3,$4,$5,0*
20,1,$1+$1,$4,$5,$6,$7,0*
20,1,$1+$1,$6,$7,$8,$9,0*
20,1,$1+$1,$8,$9,$2,$3,0*%
G04 Aperture macros list end*
%TA.AperFunction,ComponentPad*%
%ADD10C,1.600000*%
%TD*%
%TA.AperFunction,ComponentPad*%
%ADD11R,1.700000X1.700000*%
%TD*%
%TA.AperFunction,ComponentPad*%
%ADD12C,1.700000*%
%TD*%
%TA.AperFunction,ComponentPad*%
%ADD13C,2.000000*%
%TD*%
%TA.AperFunction,ComponentPad*%
%ADD14R,0.850000X0.850000*%
%TD*%
%TA.AperFunction,ComponentPad*%
%ADD15C,0.850000*%
%TD*%
%TA.AperFunction,ComponentPad*%
%ADD16RoundRect,0.250000X-0.550000X-0.550000X0.550000X-0.550000X0.550000X0.550000X-0.550000X0.550000X0*%
%TD*%
%TA.AperFunction,ViaPad*%
%ADD17C,0.600000*%
%TD*%
%TA.AperFunction,Conductor*%
%ADD18C,0.200000*%
%TD*%
%TA.AperFunction,Conductor*%
%ADD19C,1.000000*%
%TD*%
G04 APERTURE END LIST*
D10*
%TO.P,R2,2*%
%TO.N,GND*%
X143250000Y-106950000D03*
%TO.P,R2,1*%
%TO.N,Net-(LS1-Pad2)*%
X143250000Y-94250000D03*
%TD*%
%TO.P,R3,1*%
%TO.N,+3.3V*%
X88000000Y-83500000D03*
%TO.P,R3,2*%
%TO.N,Net-(U1-SCLK)*%
X100700000Y-83500000D03*
%TD*%
D11*
%TO.P,LS1,1,1*%
%TO.N,Net-(C2-Pad2)*%
X143250000Y-88475000D03*
D12*
%TO.P,LS1,2,2*%
%TO.N,Net-(LS1-Pad2)*%
X143250000Y-91015000D03*
%TD*%
D13*
%TO.P,SW2,1,1*%
%TO.N,GND*%
X106750000Y-112750000D03*
X113250000Y-112750000D03*
%TO.P,SW2,2,2*%
%TO.N,SW2*%
X106750000Y-117250000D03*
X113250000Y-117250000D03*
%TD*%
D10*
%TO.P,C1,1*%
%TO.N,Net-(U1-LOUT)*%
X119500000Y-80250000D03*
%TO.P,C1,2*%
%TO.N,Net-(U3-+)*%
X122000000Y-80250000D03*
%TD*%
D14*
%TO.P,AE1,1*%
%TO.N,Net-(U1-FMIN)*%
X98000000Y-72000000D03*
D15*
%TO.P,AE1,2*%
X98000000Y-73000000D03*
%TD*%
D16*
%TO.P,U3,1,GAIN*%
%TO.N,unconnected-(U3-GAIN-Pad1)*%
X128195000Y-75190000D03*
D10*
%TO.P,U3,2,-*%
%TO.N,GND*%
X128195000Y-77730000D03*
%TO.P,U3,3,+*%
%TO.N,Net-(U3-+)*%
X128195000Y-80270000D03*
%TO.P,U3,4,GND*%
%TO.N,GND*%
X128195000Y-82810000D03*
%TO.P,U3,5*%
%TO.N,Net-(C2-Pad1)*%
X135815000Y-82810000D03*
%TO.P,U3,6,V+*%
%TO.N,+5V*%
X135815000Y-80270000D03*
%TO.P,U3,7,BYPASS*%
%TO.N,unconnected-(U3-BYPASS-Pad7)*%
X135815000Y-77730000D03*
%TO.P,U3,8,GAIN*%
%TO.N,unconnected-(U3-GAIN-Pad8)*%
X135815000Y-75190000D03*
%TD*%
%TO.P,R1,1*%
%TO.N,Net-(U3-+)*%
X128500000Y-71500000D03*
%TO.P,R1,2*%
%TO.N,GND*%
X115800000Y-71500000D03*
%TD*%
D13*
%TO.P,SW3,1,1*%
%TO.N,GND*%
X116750000Y-112750000D03*
X123250000Y-112750000D03*
%TO.P,SW3,2,2*%
%TO.N,SW3*%
X116750000Y-117250000D03*
X123250000Y-117250000D03*
%TD*%
%TO.P,SW1,1,1*%
%TO.N,GND*%
X96807950Y-112772844D03*
X103307950Y-112772844D03*
%TO.P,SW1,2,2*%
%TO.N,SW1*%
X96807950Y-117272844D03*
X103307950Y-117272844D03*
%TD*%
D10*
%TO.P,C2,1*%
%TO.N,Net-(C2-Pad1)*%
X140750000Y-82750000D03*
%TO.P,C2,2*%
%TO.N,Net-(C2-Pad2)*%
X143250000Y-82750000D03*
%TD*%
D11*
%TO.P,U2,1,GP0*%
%TO.N,SW1*%
X88870000Y-108890000D03*
D12*
%TO.P,U2,2,GP1*%
%TO.N,SW2*%
X91410000Y-108890000D03*
%TO.P,U2,3,GND*%
%TO.N,GND*%
X93950000Y-108890000D03*
%TO.P,U2,4,GP2*%
%TO.N,SW3*%
X96490000Y-108890000D03*
%TO.P,U2,5,GP3*%
%TO.N,SW4*%
X99030000Y-108890000D03*
%TO.P,U2,6,GP4*%
%TO.N,unconnected-(U2-GP4-Pad6)*%
X101570000Y-108890000D03*
%TO.P,U2,7,GP5*%
%TO.N,unconnected-(U2-GP5-Pad7)*%
X104110000Y-108890000D03*
%TO.P,U2,8,GND*%
%TO.N,unconnected-(U2-GND-Pad8)*%
X106650000Y-108890000D03*
%TO.P,U2,9,GP6*%
%TO.N,unconnected-(U2-GP6-Pad9)*%
X109190000Y-108890000D03*
%TO.P,U2,10,GP7*%
%TO.N,unconnected-(U2-GP7-Pad10)*%
X111730000Y-108890000D03*
%TO.P,U2,11,GP8*%
%TO.N,unconnected-(U2-GP8-Pad11)*%
X114270000Y-108890000D03*
%TO.P,U2,12,GP9*%
%TO.N,unconnected-(U2-GP9-Pad12)*%
X116810000Y-108890000D03*
%TO.P,U2,13,GND*%
%TO.N,unconnected-(U2-GND-Pad13)*%
X119350000Y-108890000D03*
%TO.P,U2,14,GP10*%
%TO.N,unconnected-(U2-GP10-Pad14)*%
X121890000Y-108890000D03*
%TO.P,U2,15,GP11*%
%TO.N,unconnected-(U2-GP11-Pad15)*%
X124430000Y-108890000D03*
%TO.P,U2,16,GP12*%
%TO.N,unconnected-(U2-GP12-Pad16)*%
X126970000Y-108890000D03*
%TO.P,U2,17,GP13*%
%TO.N,unconnected-(U2-GP13-Pad17)*%
X129510000Y-108890000D03*
%TO.P,U2,18,GND*%
%TO.N,unconnected-(U2-GND-Pad18)*%
X132050000Y-108890000D03*
%TO.P,U2,19,GP14*%
%TO.N,unconnected-(U2-GP14-Pad19)*%
X134590000Y-108890000D03*
%TO.P,U2,20,GP15*%
%TO.N,unconnected-(U2-GP15-Pad20)*%
X137130000Y-108890000D03*
%TO.P,U2,21,GP16*%
%TO.N,unconnected-(U2-GP16-Pad21)*%
X137130000Y-91110000D03*
%TO.P,U2,22,GP17*%
%TO.N,CS*%
X134590000Y-91110000D03*
%TO.P,U2,23,GND*%
%TO.N,GND*%
X132050000Y-91110000D03*
%TO.P,U2,24,GP18*%
%TO.N,SCLK*%
X129510000Y-91110000D03*
%TO.P,U2,25,GP19*%
%TO.N,SDA*%
X126970000Y-91110000D03*
%TO.P,U2,26,GP20*%
%TO.N,DC*%
X124430000Y-91110000D03*
%TO.P,U2,27,GP21*%
%TO.N,RES*%
X121890000Y-91110000D03*
%TO.P,U2,28,GND*%
%TO.N,unconnected-(U2-GND-Pad28)*%
X119350000Y-91110000D03*
%TO.P,U2,29,GP22*%
%TO.N,unconnected-(U2-GP22-Pad29)*%
X116810000Y-91110000D03*
%TO.P,U2,30,RUN*%
%TO.N,unconnected-(U2-RUN-Pad30)*%
X114270000Y-91110000D03*
%TO.P,U2,31,GP26/ADC0*%
%TO.N,Net-(U1-SDIO)*%
X111730000Y-91110000D03*
%TO.P,U2,32,GP27/ADC1*%
%TO.N,Net-(U1-SCLK)*%
X109190000Y-91110000D03*
%TO.P,U2,33,GND*%
%TO.N,unconnected-(U2-GND-Pad33)*%
X106650000Y-91110000D03*
%TO.P,U2,34,GP28/ADC2*%
%TO.N,unconnected-(U2-GP28{slash}ADC2-Pad34)*%
X104110000Y-91110000D03*
%TO.P,U2,35,ADC_VREF*%
%TO.N,unconnected-(U2-ADC_VREF-Pad35)*%
X101570000Y-91110000D03*
%TO.P,U2,36,3V3*%
%TO.N,+3.3V*%
X99030000Y-91110000D03*
%TO.P,U2,37,3V3_EN*%
%TO.N,unconnected-(U2-3V3_EN-Pad37)*%
X96490000Y-91110000D03*
%TO.P,U2,38,GND*%
%TO.N,unconnected-(U2-GND-Pad38)*%
X93950000Y-91110000D03*
%TO.P,U2,39,VSYS*%
%TO.N,unconnected-(U2-VSYS-Pad39)*%
X91410000Y-91110000D03*
%TO.P,U2,40,VBUS*%
%TO.N,+5V*%
X88870000Y-91110000D03*
%TD*%
D10*
%TO.P,R4,1*%
%TO.N,+3.3V*%
X88000000Y-79500000D03*
%TO.P,R4,2*%
%TO.N,Net-(U1-SDIO)*%
X100700000Y-79500000D03*
%TD*%
D11*
%TO.P,DISP1,1,VSS/GND*%
%TO.N,GND*%
X112120000Y-87050000D03*
D12*
%TO.P,DISP1,2,VDD*%
%TO.N,+3.3V*%
X114660000Y-87050000D03*
%TO.P,DISP1,3,SCLK*%
%TO.N,SCLK*%
X117200000Y-87050000D03*
%TO.P,DISP1,4,SDA*%
%TO.N,SDA*%
X119740000Y-87050000D03*
%TO.P,DISP1,5,RES*%
%TO.N,RES*%
X122280000Y-87050000D03*
%TO.P,DISP1,6,DC*%
%TO.N,DC*%
X124820000Y-87050000D03*
%TO.P,DISP1,7,CS*%
%TO.N,CS*%
X127360000Y-87050000D03*
%TD*%
D13*
%TO.P,SW4,1,1*%
%TO.N,GND*%
X127000000Y-112750000D03*
X133500000Y-112750000D03*
%TO.P,SW4,2,2*%
%TO.N,SW4*%
X127000000Y-117250000D03*
X133500000Y-117250000D03*
%TD*%
D17*
%TO.N,GND*%
X131885000Y-86500000D03*
%TO.N,Net-(U1-LOUT)*%
X110000000Y-70500000D03*
%TO.N,SCLK*%
X121000000Y-88500000D03*
%TO.N,+3.3V*%
X104749265Y-85499265D03*
X103570000Y-86570000D03*
%TO.N,Net-(U1-SDIO)*%
X102500000Y-83500000D03*
%TO.N,SW3*%
X100000000Y-114000000D03*
X99923342Y-112076658D03*
%TO.N,+5V*%
X127500000Y-84750000D03*
X116500000Y-83500000D03*
%TD*%
D18*
%TO.N,Net-(U1-LOUT)*%
X119500000Y-80250000D02*
X119500000Y-77000000D01*
%TO.N,GND*%
X126250000Y-80865000D02*
X126250000Y-82750000D01*
X128195000Y-77730000D02*
X126250000Y-79675000D01*
X126250000Y-80865000D02*
X128195000Y-82810000D01*
D19*
%TO.N,+5V*%
X103000000Y-75000000D02*
X88870000Y-89130000D01*
X88870000Y-89130000D02*
X88870000Y-91110000D01*
X108000000Y-75000000D02*
X103000000Y-75000000D01*
X137750000Y-82205000D02*
X137750000Y-84250000D01*
X137750000Y-84250000D02*
X137250000Y-84750000D01*
X137250000Y-84750000D02*
X127500000Y-84750000D01*
X135815000Y-80270000D02*
X137750000Y-82205000D01*
X127514774Y-84764774D02*
X127500000Y-84750000D01*
%TO.N,GND*%
X132000000Y-86500000D02*
X134250000Y-88750000D01*
X131885000Y-86500000D02*
X132000000Y-86500000D01*
X134250000Y-88750000D02*
X134410000Y-88750000D01*
X133660000Y-89500000D02*
X134410000Y-88750000D01*
X134410000Y-88750000D02*
X138250000Y-88750000D01*
X138250000Y-88750000D02*
X140250000Y-90750000D01*
X140250000Y-90750000D02*
X140250000Y-103950000D01*
X140250000Y-103950000D02*
X143250000Y-106950000D01*
X132050000Y-91110000D02*
X133660000Y-89500000D01*
D18*
%TO.N,Net-(U3-+)*%
X127925000Y-80000000D02*
X128195000Y-80270000D01*
%TO.N,Net-(U1-LOUT)*%
X113000000Y-70500000D02*
X119500000Y-77000000D01*
X110000000Y-70500000D02*
X113000000Y-70500000D01*
%TO.N,GND*%
X114170000Y-85000000D02*
X112120000Y-87050000D01*
X106727156Y-112772844D02*
X106750000Y-112750000D01*
X103307950Y-112772844D02*
X106727156Y-112772844D01*
X106750000Y-112750000D02*
X113250000Y-112750000D01*
X96807950Y-112772844D02*
X103307950Y-112772844D01*
X116750000Y-112750000D02*
X123250000Y-112750000D01*
X123250000Y-112750000D02*
X127000000Y-112750000D01*
X127000000Y-112750000D02*
X133500000Y-112750000D01*
X113250000Y-112750000D02*
X116750000Y-112750000D01*
X96807950Y-111747950D02*
X96807950Y-112772844D01*
X93950000Y-108890000D02*
X96807950Y-111747950D01*
%TO.N,SDA*%
X121000000Y-89500000D02*
X125360000Y-89500000D01*
X119740000Y-87050000D02*
X119740000Y-88240000D01*
X119740000Y-88240000D02*
X121000000Y-89500000D01*
X125360000Y-89500000D02*
X126970000Y-91110000D01*
%TO.N,SCLK*%
X126900000Y-88500000D02*
X121000000Y-88500000D01*
X129510000Y-91110000D02*
X126900000Y-88500000D01*
%TO.N,+3.3V*%
X104640735Y-85499265D02*
X103570000Y-86570000D01*
X104749265Y-85499265D02*
X104640735Y-85499265D01*
%TO.N,Net-(U1-SDIO)*%
X105120000Y-84500000D02*
X103500000Y-84500000D01*
X111730000Y-91110000D02*
X105120000Y-84500000D01*
X103500000Y-84500000D02*
X102500000Y-83500000D01*
%TO.N,SW3*%
X116750000Y-117250000D02*
X123250000Y-117250000D01*
X99923342Y-111923342D02*
X99923342Y-112076658D01*
X101949000Y-115949000D02*
X115449000Y-115949000D01*
X96890000Y-108890000D02*
X99923342Y-111923342D01*
X115449000Y-115949000D02*
X116750000Y-117250000D01*
X96490000Y-108890000D02*
X96890000Y-108890000D01*
X100000000Y-114000000D02*
X101949000Y-115949000D01*
%TO.N,GND*%
X118800000Y-74500000D02*
X115800000Y-71500000D01*
X123000000Y-74500000D02*
X118800000Y-74500000D01*
X126250000Y-77750000D02*
X123000000Y-74500000D01*
X126250000Y-80865000D02*
X126250000Y-77750000D01*
X126250000Y-82750000D02*
X124000000Y-85000000D01*
X124000000Y-85000000D02*
X114170000Y-85000000D01*
D19*
%TO.N,+5V*%
X116500000Y-83500000D02*
X108000000Y-75000000D01*
%TD*%
M02*
