M48
; DRILL file {KiCad 9.0.3} date 2025-07-14T11:39:40-0700
; FORMAT={3:3/ absolute / metric / suppress leading zeros}
; #@! TF.CreationDate,2025-07-14T11:39:40-07:00
; #@! TF.GenerationSoftware,Kicad,Pcbnew,9.0.3
; #@! TF.FileFunction,Plated,1,2,PTH
FMAT,2
METRIC,TZ
; #@! TA.AperFunction,Plated,PTH,ViaDrill
T1C0.300
; #@! TA.AperFunction,Plated,PTH,ComponentDrill
T2C0.500
; #@! TA.AperFunction,Plated,PTH,ComponentDrill
T3C0.800
; #@! TA.AperFunction,Plated,PTH,ComponentDrill
T4C1.000
; #@! TA.AperFunction,Plated,PTH,ComponentDrill
T5C1.100
%
G90
G05
T1
X99923Y-112077
X100000Y-114000
X107000Y-88000
X108000Y-89000
X111000Y-89000
X112000Y-94000
X118000Y-90000
X132000Y-87000
T2
X98000Y-72000
X98000Y-73000
T3
X87650Y-80000
X87650Y-84000
X100350Y-80000
X100350Y-84000
X115650Y-72000
X119500Y-80000
X122000Y-80000
X128195Y-75190
X128195Y-77730
X128195Y-80270
X128195Y-82810
X128350Y-72000
X135815Y-75190
X135815Y-77730
X135815Y-80270
X135815Y-82810
X140500Y-82000
X142000Y-94650
X142000Y-107350
X143000Y-82000
T4
X88870Y-91110
X88870Y-108890
X91410Y-91110
X91410Y-108890
X93950Y-91110
X93950Y-108890
X96490Y-91110
X96490Y-108890
X99030Y-91110
X99030Y-108890
X101570Y-91110
X101570Y-108890
X104110Y-91110
X104110Y-108890
X106650Y-91110
X106650Y-108890
X109190Y-91110
X109190Y-108890
X111730Y-91110
X111730Y-108890
X112120Y-87050
X114270Y-91110
X114270Y-108890
X114660Y-87050
X116810Y-91110
X116810Y-108890
X117200Y-87050
X119350Y-91110
X119350Y-108890
X119740Y-87050
X121890Y-91110
X121890Y-108890
X122280Y-87050
X124430Y-91110
X124430Y-108890
X124820Y-87050
X126970Y-91110
X126970Y-108890
X127360Y-87050
X129510Y-91110
X129510Y-108890
X132050Y-91110
X132050Y-108890
X134590Y-91110
X134590Y-108890
X137130Y-91110
X137130Y-108890
X142000Y-88000
X142000Y-90540
T5
X96808Y-112773
X96808Y-117273
X103308Y-112773
X103308Y-117273
X106750Y-112750
X106750Y-117250
X113250Y-112750
X113250Y-117250
X116750Y-112750
X116750Y-117250
X123250Y-112750
X123250Y-117250
X127000Y-112750
X127000Y-117250
X133500Y-112750
X133500Y-117250
M30
