%TF.GenerationSoftware,KiCad,Pcbnew,9.0.3*%
%TF.CreationDate,2025-07-14T11:38:29-07:00*%
%TF.ProjectId,ECE_299_ALARM,4543455f-3239-4395-9f41-4c41524d2e6b,1.0*%
%TF.SameCoordinates,Original*%
%TF.FileFunction,Copper,L1,Top*%
%TF.FilePolarity,Positive*%
%FSLAX46Y46*%
G04 Gerber Fmt 4.6, Leading zero omitted, Abs format (unit mm)*
G04 Created by KiCad (PCBNEW 9.0.3) date 2025-07-14 11:38:29*
%MOMM*%
%LPD*%
G01*
G04 APERTURE LIST*
G04 Aperture macros list*
%AMRoundRect*
0 Rectangle with rounded corners*
0 $1 Rounding radius*
0 $2 $3 $4 $5 $6 $7 $8 $9 X,Y pos of 4 corners*
0 Add a 4 corners polygon primitive as box body*
4,1,4,$2,$3,$4,$5,$6,$7,$8,$9,$2,$3,0*
0 Add four circle primitives for the rounded corners*
1,1,$1+$1,$2,$3*
1,1,$1+$1,$4,$5*
1,1,$1+$1,$6,$7*
1,1,$1+$1,$8,$9*
0 Add four rect primitives between the rounded corners*
20,1,$1+$1,$2,$3,$4,$5,0*
20,1,$1+$1,$4,$5,$6,$7,0*
20,1,$1+$1,$6,$7,$8,$9,0*
20,1,$1+$1,$8,$9,$2,$3,0*%
%AMFreePoly0*
4,1,18,-0.900000,0.625000,0.275000,0.625000,0.372772,0.617305,0.523217,0.573597,0.658067,0.493847,0.768847,0.383067,0.848597,0.248217,0.892305,0.097772,0.900000,0.000000,0.892305,-0.097772,0.848597,-0.248217,0.768847,-0.383067,0.658067,-0.493847,0.523217,-0.573597,0.372772,-0.617305,0.275000,-0.625000,-0.900000,-0.625000,-0.900000,0.625000,-0.900000,0.625000,$1*%
G04 Aperture macros list end*
%TA.AperFunction,ComponentPad*%
%ADD10R,1.700000X1.700000*%
%TD*%
%TA.AperFunction,ComponentPad*%
%ADD11C,1.700000*%
%TD*%
%TA.AperFunction,ComponentPad*%
%ADD12C,2.000000*%
%TD*%
%TA.AperFunction,ComponentPad*%
%ADD13C,1.600000*%
%TD*%
%TA.AperFunction,ComponentPad*%
%ADD14R,0.850000X0.850000*%
%TD*%
%TA.AperFunction,ComponentPad*%
%ADD15C,0.850000*%
%TD*%
%TA.AperFunction,ComponentPad*%
%ADD16RoundRect,0.250000X-0.550000X-0.550000X0.550000X-0.550000X0.550000X0.550000X-0.550000X0.550000X0*%
%TD*%
%TA.AperFunction,SMDPad,CuDef*%
%ADD17FreePoly0,90.000000*%
%TD*%
%TA.AperFunction,SMDPad,CuDef*%
%ADD18FreePoly0,270.000000*%
%TD*%
%TA.AperFunction,ViaPad*%
%ADD19C,0.600000*%
%TD*%
%TA.AperFunction,Conductor*%
%ADD20C,0.200000*%
%TD*%
G04 APERTURE END LIST*
D10*
%TO.P,LS1,1,1*%
%TO.N,Net-(C2-Pad2)*%
X142000000Y-88000000D03*
D11*
%TO.P,LS1,2,2*%
%TO.N,Net-(LS1-Pad2)*%
X142000000Y-90540000D03*
%TD*%
D12*
%TO.P,SW2,1,1*%
%TO.N,GND*%
X106750000Y-112750000D03*
X113250000Y-112750000D03*
%TO.P,SW2,2,2*%
%TO.N,SW2*%
X106750000Y-117250000D03*
X113250000Y-117250000D03*
%TD*%
D13*
%TO.P,C1,1*%
%TO.N,Net-(U1-LOUT)*%
X119500000Y-80000000D03*
%TO.P,C1,2*%
%TO.N,Net-(U3-+)*%
X122000000Y-80000000D03*
%TD*%
D14*
%TO.P,AE1,1*%
%TO.N,Net-(U1-FMIN)*%
X98000000Y-72000000D03*
D15*
%TO.P,AE1,2*%
X98000000Y-73000000D03*
%TD*%
D16*
%TO.P,U3,1,GAIN*%
%TO.N,unconnected-(U3-GAIN-Pad1)*%
X128195000Y-75190000D03*
D13*
%TO.P,U3,2,-*%
%TO.N,GND*%
X128195000Y-77730000D03*
%TO.P,U3,3,+*%
%TO.N,Net-(U3-+)*%
X128195000Y-80270000D03*
%TO.P,U3,4,GND*%
%TO.N,GND*%
X128195000Y-82810000D03*
%TO.P,U3,5*%
%TO.N,Net-(C2-Pad1)*%
X135815000Y-82810000D03*
%TO.P,U3,6,V+*%
%TO.N,+5V*%
X135815000Y-80270000D03*
%TO.P,U3,7,BYPASS*%
%TO.N,unconnected-(U3-BYPASS-Pad7)*%
X135815000Y-77730000D03*
%TO.P,U3,8,GAIN*%
%TO.N,unconnected-(U3-GAIN-Pad8)*%
X135815000Y-75190000D03*
%TD*%
D12*
%TO.P,SW3,1,1*%
%TO.N,GND*%
X116750000Y-112750000D03*
X123250000Y-112750000D03*
%TO.P,SW3,2,2*%
%TO.N,SW3*%
X116750000Y-117250000D03*
X123250000Y-117250000D03*
%TD*%
%TO.P,SW1,1,1*%
%TO.N,GND*%
X96807950Y-112772844D03*
X103307950Y-112772844D03*
%TO.P,SW1,2,2*%
%TO.N,SW1*%
X96807950Y-117272844D03*
X103307950Y-117272844D03*
%TD*%
D17*
%TO.P,U1,1,SDIO*%
%TO.N,Net-(U1-SDIO)*%
X104000000Y-83400000D03*
%TO.P,U1,2,SCLK*%
%TO.N,Net-(U1-SCLK)*%
X106000000Y-83400000D03*
%TO.P,U1,3,N/C*%
%TO.N,unconnected-(U1-N{slash}C-Pad3)*%
X108000000Y-83400000D03*
%TO.P,U1,4,N/C*%
%TO.N,unconnected-(U1-N{slash}C-Pad4)*%
X110000000Y-83400000D03*
%TO.P,U1,5,VDD*%
%TO.N,+3.3V*%
X112000000Y-83400000D03*
D18*
%TO.P,U1,6,GND*%
%TO.N,GND*%
X112000000Y-72600000D03*
%TO.P,U1,7,ROUT*%
%TO.N,unconnected-(U1-ROUT-Pad7)*%
X110000000Y-72600000D03*
%TO.P,U1,8,LOUT*%
%TO.N,Net-(U1-LOUT)*%
X108000000Y-72600000D03*
%TO.P,U1,9,N/C*%
%TO.N,unconnected-(U1-N{slash}C-Pad9)*%
X106000000Y-72600000D03*
%TO.P,U1,10,FMIN*%
%TO.N,Net-(U1-FMIN)*%
X104000000Y-72600000D03*
%TD*%
D13*
%TO.P,C2,1*%
%TO.N,Net-(C2-Pad1)*%
X140500000Y-82000000D03*
%TO.P,C2,2*%
%TO.N,Net-(C2-Pad2)*%
X143000000Y-82000000D03*
%TD*%
D10*
%TO.P,U2,1,GP0*%
%TO.N,SW1*%
X88870000Y-108890000D03*
D11*
%TO.P,U2,2,GP1*%
%TO.N,SW2*%
X91410000Y-108890000D03*
%TO.P,U2,3,GND*%
%TO.N,GND*%
X93950000Y-108890000D03*
%TO.P,U2,4,GP2*%
%TO.N,SW3*%
X96490000Y-108890000D03*
%TO.P,U2,5,GP3*%
%TO.N,SW4*%
X99030000Y-108890000D03*
%TO.P,U2,6,GP4*%
%TO.N,unconnected-(U2-GP4-Pad6)*%
X101570000Y-108890000D03*
%TO.P,U2,7,GP5*%
%TO.N,unconnected-(U2-GP5-Pad7)*%
X104110000Y-108890000D03*
%TO.P,U2,8,GND*%
%TO.N,unconnected-(U2-GND-Pad8)*%
X106650000Y-108890000D03*
%TO.P,U2,9,GP6*%
%TO.N,unconnected-(U2-GP6-Pad9)*%
X109190000Y-108890000D03*
%TO.P,U2,10,GP7*%
%TO.N,unconnected-(U2-GP7-Pad10)*%
X111730000Y-108890000D03*
%TO.P,U2,11,GP8*%
%TO.N,unconnected-(U2-GP8-Pad11)*%
X114270000Y-108890000D03*
%TO.P,U2,12,GP9*%
%TO.N,unconnected-(U2-GP9-Pad12)*%
X116810000Y-108890000D03*
%TO.P,U2,13,GND*%
%TO.N,unconnected-(U2-GND-Pad13)*%
X119350000Y-108890000D03*
%TO.P,U2,14,GP10*%
%TO.N,unconnected-(U2-GP10-Pad14)*%
X121890000Y-108890000D03*
%TO.P,U2,15,GP11*%
%TO.N,unconnected-(U2-GP11-Pad15)*%
X124430000Y-108890000D03*
%TO.P,U2,16,GP12*%
%TO.N,unconnected-(U2-GP12-Pad16)*%
X126970000Y-108890000D03*
%TO.P,U2,17,GP13*%
%TO.N,unconnected-(U2-GP13-Pad17)*%
X129510000Y-108890000D03*
%TO.P,U2,18,GND*%
%TO.N,unconnected-(U2-GND-Pad18)*%
X132050000Y-108890000D03*
%TO.P,U2,19,GP14*%
%TO.N,unconnected-(U2-GP14-Pad19)*%
X134590000Y-108890000D03*
%TO.P,U2,20,GP15*%
%TO.N,unconnected-(U2-GP15-Pad20)*%
X137130000Y-108890000D03*
%TO.P,U2,21,GP16*%
%TO.N,unconnected-(U2-GP16-Pad21)*%
X137130000Y-91110000D03*
%TO.P,U2,22,GP17*%
%TO.N,Net-(DISP1-CS)*%
X134590000Y-91110000D03*
%TO.P,U2,23,GND*%
%TO.N,GND*%
X132050000Y-91110000D03*
%TO.P,U2,24,GP18*%
%TO.N,Net-(DISP1-SCLK)*%
X129510000Y-91110000D03*
%TO.P,U2,25,GP19*%
%TO.N,Net-(DISP1-SDA)*%
X126970000Y-91110000D03*
%TO.P,U2,26,GP20*%
%TO.N,Net-(DISP1-DC)*%
X124430000Y-91110000D03*
%TO.P,U2,27,GP21*%
%TO.N,Net-(DISP1-RES)*%
X121890000Y-91110000D03*
%TO.P,U2,28,GND*%
%TO.N,unconnected-(U2-GND-Pad28)*%
X119350000Y-91110000D03*
%TO.P,U2,29,GP22*%
%TO.N,unconnected-(U2-GP22-Pad29)*%
X116810000Y-91110000D03*
%TO.P,U2,30,RUN*%
%TO.N,unconnected-(U2-RUN-Pad30)*%
X114270000Y-91110000D03*
%TO.P,U2,31,GP26/ADC0*%
%TO.N,Net-(U1-SCLK)*%
X111730000Y-91110000D03*
%TO.P,U2,32,GP27/ADC1*%
%TO.N,Net-(U1-SDIO)*%
X109190000Y-91110000D03*
%TO.P,U2,33,GND*%
%TO.N,unconnected-(U2-GND-Pad33)*%
X106650000Y-91110000D03*
%TO.P,U2,34,GP28/ADC2*%
%TO.N,unconnected-(U2-GP28{slash}ADC2-Pad34)*%
X104110000Y-91110000D03*
%TO.P,U2,35,ADC_VREF*%
%TO.N,unconnected-(U2-ADC_VREF-Pad35)*%
X101570000Y-91110000D03*
%TO.P,U2,36,3V3*%
%TO.N,+3.3V*%
X99030000Y-91110000D03*
%TO.P,U2,37,3V3_EN*%
%TO.N,unconnected-(U2-3V3_EN-Pad37)*%
X96490000Y-91110000D03*
%TO.P,U2,38,GND*%
%TO.N,unconnected-(U2-GND-Pad38)*%
X93950000Y-91110000D03*
%TO.P,U2,39,VSYS*%
%TO.N,unconnected-(U2-VSYS-Pad39)*%
X91410000Y-91110000D03*
%TO.P,U2,40,VBUS*%
%TO.N,+5V*%
X88870000Y-91110000D03*
%TD*%
D10*
%TO.P,DISP1,1,VSS/GND*%
%TO.N,GND*%
X112120000Y-87050000D03*
D11*
%TO.P,DISP1,2,VDD*%
%TO.N,+3.3V*%
X114660000Y-87050000D03*
%TO.P,DISP1,3,SCLK*%
%TO.N,Net-(DISP1-SCLK)*%
X117200000Y-87050000D03*
%TO.P,DISP1,4,SDA*%
%TO.N,Net-(DISP1-SDA)*%
X119740000Y-87050000D03*
%TO.P,DISP1,5,RES*%
%TO.N,Net-(DISP1-RES)*%
X122280000Y-87050000D03*
%TO.P,DISP1,6,DC*%
%TO.N,Net-(DISP1-DC)*%
X124820000Y-87050000D03*
%TO.P,DISP1,7,CS*%
%TO.N,Net-(DISP1-CS)*%
X127360000Y-87050000D03*
%TD*%
D12*
%TO.P,SW4,1,1*%
%TO.N,GND*%
X127000000Y-112750000D03*
X133500000Y-112750000D03*
%TO.P,SW4,2,2*%
%TO.N,SW4*%
X127000000Y-117250000D03*
X133500000Y-117250000D03*
%TD*%
D13*
%TO.P,R3,1*%
%TO.N,+3.3V*%
X87650000Y-84000000D03*
%TO.P,R3,2*%
%TO.N,Net-(U1-SDIO)*%
X100350000Y-84000000D03*
%TD*%
%TO.P,R2,1*%
%TO.N,Net-(LS1-Pad2)*%
X142000000Y-94650000D03*
%TO.P,R2,2*%
%TO.N,GND*%
X142000000Y-107350000D03*
%TD*%
%TO.P,R1,1*%
%TO.N,Net-(U3-+)*%
X115650000Y-72000000D03*
%TO.P,R1,2*%
%TO.N,GND*%
X128350000Y-72000000D03*
%TD*%
%TO.P,R4,1*%
%TO.N,+3.3V*%
X87650000Y-80000000D03*
%TO.P,R4,2*%
%TO.N,Net-(U1-SCLK)*%
X100350000Y-80000000D03*
%TD*%
D19*
%TO.N,GND*%
X132000000Y-87000000D03*
%TO.N,Net-(DISP1-SCLK)*%
X118000000Y-90000000D03*
%TO.N,+3.3V*%
X112000000Y-94000000D03*
%TO.N,Net-(U1-SCLK)*%
X107000000Y-88000000D03*
%TO.N,SW3*%
X100000000Y-114000000D03*
X99923342Y-112076658D03*
%TO.N,+5V*%
X111000000Y-89000000D03*
X108000000Y-89000000D03*
%TD*%
D20*
%TO.N,Net-(U1-FMIN)*%
X102600000Y-74000000D02*
X99000000Y-74000000D01*
X103000000Y-72000000D02*
X98000000Y-72000000D01*
X99000000Y-74000000D02*
X98000000Y-73000000D01*
X103600000Y-72600000D02*
X103000000Y-72000000D01*
X104000000Y-72600000D02*
X103600000Y-72600000D01*
X104000000Y-72600000D02*
X102600000Y-74000000D01*
%TO.N,Net-(U1-LOUT)*%
X108000000Y-72600000D02*
X115400000Y-80000000D01*
X115400000Y-80000000D02*
X119500000Y-80000000D01*
%TO.N,Net-(C2-Pad2)*%
X142000000Y-84000000D02*
X142000000Y-88000000D01*
X143000000Y-83000000D02*
X142000000Y-84000000D01*
X143000000Y-82000000D02*
X143000000Y-83000000D01*
%TO.N,Net-(C2-Pad1)*%
X139690000Y-82810000D02*
X140500000Y-82000000D01*
X135815000Y-82810000D02*
X139690000Y-82810000D01*
%TO.N,GND*%
X136600000Y-112750000D02*
X133500000Y-112750000D01*
X122000000Y-72000000D02*
X128350000Y-72000000D01*
X128195000Y-82810000D02*
X132000000Y-86615000D01*
X119000000Y-75000000D02*
X122000000Y-72000000D01*
X114400000Y-75000000D02*
X119000000Y-75000000D01*
X132000000Y-86615000D02*
X132000000Y-87000000D01*
X142000000Y-107350000D02*
X136600000Y-112750000D01*
X112000000Y-72600000D02*
X114400000Y-75000000D01*
%TO.N,Net-(DISP1-SDA)*%
X120739000Y-88049000D02*
X120739000Y-92739000D01*
X119740000Y-87050000D02*
X120739000Y-88049000D01*
X121000000Y-93000000D02*
X125080000Y-93000000D01*
X125080000Y-93000000D02*
X126970000Y-91110000D01*
X120739000Y-92739000D02*
X121000000Y-93000000D01*
%TO.N,Net-(DISP1-SCLK)*%
X117200000Y-89200000D02*
X118000000Y-90000000D01*
X117200000Y-87050000D02*
X117200000Y-89200000D01*
%TO.N,Net-(DISP1-DC)*%
X124820000Y-87050000D02*
X124820000Y-90720000D01*
X124820000Y-90720000D02*
X124430000Y-91110000D01*
%TO.N,Net-(DISP1-CS)*%
X127360000Y-87050000D02*
X130530000Y-87050000D01*
X130530000Y-87050000D02*
X134590000Y-91110000D01*
%TO.N,+3.3V*%
X87650000Y-84000000D02*
X87650000Y-80000000D01*
X112000000Y-83400000D02*
X112000000Y-84390000D01*
X113119000Y-92881000D02*
X113119000Y-88591000D01*
X113119000Y-88591000D02*
X114660000Y-87050000D01*
X91920000Y-84000000D02*
X87650000Y-84000000D01*
X99030000Y-91110000D02*
X91920000Y-84000000D01*
X112000000Y-84390000D02*
X114660000Y-87050000D01*
X112000000Y-94000000D02*
X113119000Y-92881000D01*
%TO.N,Net-(DISP1-RES)*%
X122280000Y-87050000D02*
X122280000Y-90720000D01*
X122280000Y-90720000D02*
X121890000Y-91110000D01*
%TO.N,Net-(LS1-Pad2)*%
X142000000Y-90540000D02*
X142000000Y-94650000D01*
%TO.N,Net-(U1-SCLK)*%
X106000000Y-87000000D02*
X106000000Y-83400000D01*
X107000000Y-88000000D02*
X106000000Y-87000000D01*
%TO.N,Net-(U1-SDIO)*%
X104040000Y-85960000D02*
X102040000Y-85960000D01*
X100350000Y-85350000D02*
X100350000Y-84000000D01*
X104000000Y-85920000D02*
X104000000Y-83400000D01*
X104040000Y-85960000D02*
X104000000Y-85920000D01*
X109190000Y-91110000D02*
X104040000Y-85960000D01*
X102040000Y-85960000D02*
X102000000Y-86000000D01*
X102000000Y-86000000D02*
X101000000Y-86000000D01*
X101000000Y-86000000D02*
X100350000Y-85350000D01*
%TO.N,SW1*%
X96807950Y-117272844D02*
X103307950Y-117272844D01*
X95000000Y-115464894D02*
X96807950Y-117272844D01*
X95000000Y-112000000D02*
X95000000Y-115464894D01*
X88870000Y-108890000D02*
X90980000Y-111000000D01*
X94000000Y-111000000D02*
X95000000Y-112000000D01*
X90980000Y-111000000D02*
X94000000Y-111000000D01*
%TO.N,SW2*%
X105945214Y-117250000D02*
X106750000Y-117250000D01*
X98736214Y-110041000D02*
X105945214Y-117250000D01*
X106750000Y-117250000D02*
X113250000Y-117250000D01*
X91410000Y-108890000D02*
X92561000Y-110041000D01*
X92561000Y-110041000D02*
X98736214Y-110041000D01*
%TO.N,SW3*%
X99923342Y-113923342D02*
X100000000Y-114000000D01*
X99923342Y-112076658D02*
X99923342Y-113923342D01*
%TO.N,SW4*%
X99030000Y-108890000D02*
X101589000Y-111449000D01*
X120109108Y-111449000D02*
X125910108Y-117250000D01*
X127000000Y-117250000D02*
X133500000Y-117250000D01*
X125910108Y-117250000D02*
X127000000Y-117250000D01*
X101589000Y-111449000D02*
X120109108Y-111449000D01*
%TO.N,+5V*%
X108000000Y-89000000D02*
X111000000Y-89000000D01*
%TD*%
M02*
