%TF.GenerationSoftware,KiCad,Pcbnew,9.0.3*%
%TF.CreationDate,2025-07-14T11:38:29-07:00*%
%TF.ProjectId,ECE_299_ALARM,4543455f-3239-4395-9f41-4c41524d2e6b,1.0*%
%TF.SameCoordinates,Original*%
%TF.FileFunction,Legend,Bot*%
%TF.FilePolarity,Positive*%
%FSLAX46Y46*%
G04 Gerber Fmt 4.6, Leading zero omitted, Abs format (unit mm)*
G04 Created by KiCad (PCBNEW 9.0.3) date 2025-07-14 11:38:29*
%MOMM*%
%LPD*%
G01*
G04 APERTURE LIST*
G04 Aperture macros list*
%AMRoundRect*
0 Rectangle with rounded corners*
0 $1 Rounding radius*
0 $2 $3 $4 $5 $6 $7 $8 $9 X,Y pos of 4 corners*
0 Add a 4 corners polygon primitive as box body*
4,1,4,$2,$3,$4,$5,$6,$7,$8,$9,$2,$3,0*
0 Add four circle primitives for the rounded corners*
1,1,$1+$1,$2,$3*
1,1,$1+$1,$4,$5*
1,1,$1+$1,$6,$7*
1,1,$1+$1,$8,$9*
0 Add four rect primitives between the rounded corners*
20,1,$1+$1,$2,$3,$4,$5,0*
20,1,$1+$1,$4,$5,$6,$7,0*
20,1,$1+$1,$6,$7,$8,$9,0*
20,1,$1+$1,$8,$9,$2,$3,0*%
G04 Aperture macros list end*
%ADD10C,0.150000*%
%ADD11C,0.120000*%
%ADD12C,3.200000*%
%ADD13R,1.700000X1.700000*%
%ADD14C,1.700000*%
%ADD15C,2.000000*%
%ADD16C,1.600000*%
%ADD17R,0.850000X0.850000*%
%ADD18C,0.850000*%
%ADD19RoundRect,0.250000X-0.550000X-0.550000X0.550000X-0.550000X0.550000X0.550000X-0.550000X0.550000X0*%
G04 APERTURE END LIST*
D10*
X94166666Y-84454819D02*
X94499999Y-83978628D01*
X94738094Y-84454819D02*
X94738094Y-83454819D01*
X94738094Y-83454819D02*
X94357142Y-83454819D01*
X94357142Y-83454819D02*
X94261904Y-83502438D01*
X94261904Y-83502438D02*
X94214285Y-83550057D01*
X94214285Y-83550057D02*
X94166666Y-83645295D01*
X94166666Y-83645295D02*
X94166666Y-83788152D01*
X94166666Y-83788152D02*
X94214285Y-83883390D01*
X94214285Y-83883390D02*
X94261904Y-83931009D01*
X94261904Y-83931009D02*
X94357142Y-83978628D01*
X94357142Y-83978628D02*
X94738094Y-83978628D01*
X93833332Y-83454819D02*
X93214285Y-83454819D01*
X93214285Y-83454819D02*
X93547618Y-83835771D01*
X93547618Y-83835771D02*
X93404761Y-83835771D01*
X93404761Y-83835771D02*
X93309523Y-83883390D01*
X93309523Y-83883390D02*
X93261904Y-83931009D01*
X93261904Y-83931009D02*
X93214285Y-84026247D01*
X93214285Y-84026247D02*
X93214285Y-84264342D01*
X93214285Y-84264342D02*
X93261904Y-84359580D01*
X93261904Y-84359580D02*
X93309523Y-84407200D01*
X93309523Y-84407200D02*
X93404761Y-84454819D01*
X93404761Y-84454819D02*
X93690475Y-84454819D01*
X93690475Y-84454819D02*
X93785713Y-84407200D01*
X93785713Y-84407200D02*
X93833332Y-84359580D01*
X139734819Y-100833333D02*
X139258628Y-100500000D01*
X139734819Y-100261905D02*
X138734819Y-100261905D01*
X138734819Y-100261905D02*
X138734819Y-100642857D01*
X138734819Y-100642857D02*
X138782438Y-100738095D01*
X138782438Y-100738095D02*
X138830057Y-100785714D01*
X138830057Y-100785714D02*
X138925295Y-100833333D01*
X138925295Y-100833333D02*
X139068152Y-100833333D01*
X139068152Y-100833333D02*
X139163390Y-100785714D01*
X139163390Y-100785714D02*
X139211009Y-100738095D01*
X139211009Y-100738095D02*
X139258628Y-100642857D01*
X139258628Y-100642857D02*
X139258628Y-100261905D01*
X138830057Y-101214286D02*
X138782438Y-101261905D01*
X138782438Y-101261905D02*
X138734819Y-101357143D01*
X138734819Y-101357143D02*
X138734819Y-101595238D01*
X138734819Y-101595238D02*
X138782438Y-101690476D01*
X138782438Y-101690476D02*
X138830057Y-101738095D01*
X138830057Y-101738095D02*
X138925295Y-101785714D01*
X138925295Y-101785714D02*
X139020533Y-101785714D01*
X139020533Y-101785714D02*
X139163390Y-101738095D01*
X139163390Y-101738095D02*
X139734819Y-101166667D01*
X139734819Y-101166667D02*
X139734819Y-101785714D01*
X130666666Y-74174819D02*
X130999999Y-73698628D01*
X131238094Y-74174819D02*
X131238094Y-73174819D01*
X131238094Y-73174819D02*
X130857142Y-73174819D01*
X130857142Y-73174819D02*
X130761904Y-73222438D01*
X130761904Y-73222438D02*
X130714285Y-73270057D01*
X130714285Y-73270057D02*
X130666666Y-73365295D01*
X130666666Y-73365295D02*
X130666666Y-73508152D01*
X130666666Y-73508152D02*
X130714285Y-73603390D01*
X130714285Y-73603390D02*
X130761904Y-73651009D01*
X130761904Y-73651009D02*
X130857142Y-73698628D01*
X130857142Y-73698628D02*
X131238094Y-73698628D01*
X129714285Y-74174819D02*
X130285713Y-74174819D01*
X129999999Y-74174819D02*
X129999999Y-73174819D01*
X129999999Y-73174819D02*
X130095237Y-73317676D01*
X130095237Y-73317676D02*
X130190475Y-73412914D01*
X130190475Y-73412914D02*
X130285713Y-73460533D01*
X101166666Y-77954819D02*
X101499999Y-77478628D01*
X101738094Y-77954819D02*
X101738094Y-76954819D01*
X101738094Y-76954819D02*
X101357142Y-76954819D01*
X101357142Y-76954819D02*
X101261904Y-77002438D01*
X101261904Y-77002438D02*
X101214285Y-77050057D01*
X101214285Y-77050057D02*
X101166666Y-77145295D01*
X101166666Y-77145295D02*
X101166666Y-77288152D01*
X101166666Y-77288152D02*
X101214285Y-77383390D01*
X101214285Y-77383390D02*
X101261904Y-77431009D01*
X101261904Y-77431009D02*
X101357142Y-77478628D01*
X101357142Y-77478628D02*
X101738094Y-77478628D01*
X100309523Y-77288152D02*
X100309523Y-77954819D01*
X100547618Y-76907200D02*
X100785713Y-77621485D01*
X100785713Y-77621485D02*
X100166666Y-77621485D01*
D11*
%TO.C,R3*%
X88690000Y-84000000D02*
X89380000Y-84000000D01*
X99310000Y-84000000D02*
X98620000Y-84000000D01*
X89380000Y-85720000D02*
X98620000Y-85720000D01*
X98620000Y-82280000D01*
X89380000Y-82280000D01*
X89380000Y-85720000D01*
%TO.C,R2*%
X142000000Y-95690000D02*
X142000000Y-96380000D01*
X142000000Y-106310000D02*
X142000000Y-105620000D01*
X140280000Y-96380000D02*
X143720000Y-96380000D01*
X143720000Y-105620000D01*
X140280000Y-105620000D01*
X140280000Y-96380000D01*
%TO.C,R1*%
X116690000Y-72000000D02*
X117380000Y-72000000D01*
X127310000Y-72000000D02*
X126620000Y-72000000D01*
X117380000Y-73720000D02*
X126620000Y-73720000D01*
X126620000Y-70280000D01*
X117380000Y-70280000D01*
X117380000Y-73720000D01*
%TO.C,R4*%
X88690000Y-80000000D02*
X89380000Y-80000000D01*
X99310000Y-80000000D02*
X98620000Y-80000000D01*
X89380000Y-81720000D02*
X98620000Y-81720000D01*
X98620000Y-78280000D01*
X89380000Y-78280000D01*
X89380000Y-81720000D01*
%TD*%
%LPC*%
D12*
%TO.C,REF\u002A\u002A*%
X90000000Y-115000000D03*
%TD*%
D13*
%TO.C,LS1*%
X142000000Y-88000000D03*
D14*
X142000000Y-90540000D03*
%TD*%
D15*
%TO.C,SW2*%
X106750000Y-112750000D03*
X113250000Y-112750000D03*
X106750000Y-117250000D03*
X113250000Y-117250000D03*
%TD*%
D16*
%TO.C,C1*%
X119500000Y-80000000D03*
X122000000Y-80000000D03*
%TD*%
D12*
%TO.C,REF\u002A\u002A*%
X142000000Y-115000000D03*
%TD*%
D17*
%TO.C,AE1*%
X98000000Y-72000000D03*
D18*
X98000000Y-73000000D03*
%TD*%
D19*
%TO.C,U3*%
X128195000Y-75190000D03*
D16*
X128195000Y-77730000D03*
X128195000Y-80270000D03*
X128195000Y-82810000D03*
X135815000Y-82810000D03*
X135815000Y-80270000D03*
X135815000Y-77730000D03*
X135815000Y-75190000D03*
%TD*%
D12*
%TO.C,REF\u002A\u002A*%
X142000000Y-74000000D03*
%TD*%
%TO.C,REF\u002A\u002A*%
X90000000Y-74000000D03*
%TD*%
D15*
%TO.C,SW3*%
X116750000Y-112750000D03*
X123250000Y-112750000D03*
X116750000Y-117250000D03*
X123250000Y-117250000D03*
%TD*%
%TO.C,SW1*%
X96807950Y-112772844D03*
X103307950Y-112772844D03*
X96807950Y-117272844D03*
X103307950Y-117272844D03*
%TD*%
D16*
%TO.C,C2*%
X140500000Y-82000000D03*
X143000000Y-82000000D03*
%TD*%
D13*
%TO.C,U2*%
X88870000Y-108890000D03*
D14*
X91410000Y-108890000D03*
X93950000Y-108890000D03*
X96490000Y-108890000D03*
X99030000Y-108890000D03*
X101570000Y-108890000D03*
X104110000Y-108890000D03*
X106650000Y-108890000D03*
X109190000Y-108890000D03*
X111730000Y-108890000D03*
X114270000Y-108890000D03*
X116810000Y-108890000D03*
X119350000Y-108890000D03*
X121890000Y-108890000D03*
X124430000Y-108890000D03*
X126970000Y-108890000D03*
X129510000Y-108890000D03*
X132050000Y-108890000D03*
X134590000Y-108890000D03*
X137130000Y-108890000D03*
X137130000Y-91110000D03*
X134590000Y-91110000D03*
X132050000Y-91110000D03*
X129510000Y-91110000D03*
X126970000Y-91110000D03*
X124430000Y-91110000D03*
X121890000Y-91110000D03*
X119350000Y-91110000D03*
X116810000Y-91110000D03*
X114270000Y-91110000D03*
X111730000Y-91110000D03*
X109190000Y-91110000D03*
X106650000Y-91110000D03*
X104110000Y-91110000D03*
X101570000Y-91110000D03*
X99030000Y-91110000D03*
X96490000Y-91110000D03*
X93950000Y-91110000D03*
X91410000Y-91110000D03*
X88870000Y-91110000D03*
%TD*%
D13*
%TO.C,DISP1*%
X112120000Y-87050000D03*
D14*
X114660000Y-87050000D03*
X117200000Y-87050000D03*
X119740000Y-87050000D03*
X122280000Y-87050000D03*
X124820000Y-87050000D03*
X127360000Y-87050000D03*
%TD*%
D15*
%TO.C,SW4*%
X127000000Y-112750000D03*
X133500000Y-112750000D03*
X127000000Y-117250000D03*
X133500000Y-117250000D03*
%TD*%
D16*
%TO.C,R3*%
X87650000Y-84000000D03*
X100350000Y-84000000D03*
%TD*%
%TO.C,R2*%
X142000000Y-94650000D03*
X142000000Y-107350000D03*
%TD*%
%TO.C,R1*%
X115650000Y-72000000D03*
X128350000Y-72000000D03*
%TD*%
%TO.C,R4*%
X87650000Y-80000000D03*
X100350000Y-80000000D03*
%TD*%
%LPD*%
M02*
